<svg width="176" height="40" xmlns="http://www.w3.org/2000/svg" viewBox="0 0 176 40">
  <defs>
    <style>
      .st5 {
        fill: #2b5ca3;
      }

      .st6 {
        fill: #223f70;
      }
    </style>
  </defs>
  <g>
    <path class="st6" d="M49.5,13.2h1.7v8.6c0,1.2-.2,2.3-.7,3.2s-1.1,1.6-1.9,2.1c-.8.5-1.8.7-3,.7-1.8,0-3.1-.5-4.1-1.6s-1.5-2.5-1.5-4.4v-8.6h1.7v8.3c0,1.5.3,2.7,1,3.5.7.8,1.6,1.2,2.9,1.2s2.2-.4,2.9-1.2c.7-.8,1-2,1-3.5v-8.3Z"/>
    <path class="st6" d="M61.8,18.2c.7.7,1,1.7,1,3.1v6.3h-1.7v-5.8c0-1-.2-1.7-.6-2.2-.4-.5-1-.8-1.7-.8s-1,.1-1.4.3c-.4.2-.8.6-1.1,1s-.4,1-.4,1.7v5.8h-1.7v-10.2h1.5c0,.7,0,1.2.1,1.7.3-.6.8-1.1,1.4-1.4.6-.3,1.2-.5,2-.5,1.1,0,2,.4,2.6,1.1Z"/>
    <path class="st6" d="M67.3,27.6h-1.7v-14.9h1.7v14.9Z"/>
    <path class="st6" d="M70.4,19.7c.5-.8,1-1.4,1.8-1.9s1.5-.7,2.4-.7,1.7.2,2.4.7c.7.4,1.3,1.1,1.8,1.9.4.8.7,1.7.7,2.8s-.2,2-.7,2.8c-.4.8-1,1.4-1.8,1.9-.7.5-1.5.7-2.4.7s-1.7-.2-2.4-.7c-.8-.5-1.4-1.1-1.8-1.9s-.7-1.7-.7-2.8.2-1.9.7-2.7ZM71.9,24.5c.3.6.6,1,1.1,1.3.5.3,1,.5,1.6.5s1.1-.2,1.6-.5c.5-.3.8-.7,1.1-1.3.3-.6.4-1.2.4-2s-.1-1.4-.4-2c-.3-.6-.6-1-1.1-1.3-.5-.3-1-.5-1.6-.5s-1.1.2-1.6.5c-.5.3-.8.7-1.1,1.3-.3.6-.4,1.2-.4,2s.1,1.4.4,2Z"/>
    <path class="st6" d="M88.6,24.9l1.3.8c-.4.7-.9,1.3-1.5,1.6s-1.3.5-2.1.5-1.7-.2-2.5-.7c-.7-.4-1.3-1.1-1.8-1.9-.4-.8-.6-1.7-.6-2.8s.2-2,.6-2.8c.4-.8,1-1.4,1.8-1.9.7-.4,1.6-.7,2.5-.7s1.5.2,2.1.5c.6.4,1.1.9,1.5,1.6l-1.3.8c-.6-.9-1.3-1.3-2.3-1.3s-1.7.3-2.2,1c-.6.7-.9,1.6-.9,2.7s.3,2.1.9,2.7,1.3,1,2.2,1,1.8-.4,2.3-1.3Z"/>
    <path class="st6" d="M96.2,21.6l4.2,6h-2.1l-3.3-4.7-1.8,2v2.7h-1.7v-14.9h1.7v10.1l4.7-5.3h2l-3.8,4.2Z"/>
  </g>
  <g>
    <path class="st6" d="M103.7,13.2h2.8v11.8h6.5v2.6h-9.4v-14.4Z"/>
    <path class="st6" d="M122.2,18.3c.8.8,1.2,1.9,1.2,3.3v5.9h-2.3c0-.1,0-.3,0-.5,0-.2,0-.5,0-.6-.3.5-.7.8-1.2,1-.5.2-1.1.3-1.7.3s-1.4-.1-1.9-.4-1-.6-1.4-1.1-.5-1-.5-1.7.2-1.3.6-1.8c.4-.5.9-.9,1.6-1.2s1.4-.4,2.2-.4,1.4.1,2.2.4c0-1.5-.7-2.3-1.9-2.3s-1.7.4-2.2,1.3l-1.9-1.1c.4-.8.9-1.4,1.7-1.8.8-.4,1.6-.7,2.7-.7s2.4.4,3.2,1.2ZM120.7,23.5c-.7-.2-1.2-.2-1.7-.2s-1.1.1-1.5.3c-.4.2-.5.6-.5,1s.1.7.4.9c.3.2.6.3,1.1.3s1.1-.2,1.5-.5.7-.8.7-1.4v-.4Z"/>
    <path class="st6" d="M134.2,18.3c.7.7,1,1.8,1,3.2v6.1h-2.7v-5.2c0-1.9-.6-2.8-1.8-2.8s-1.2.3-1.6.8c-.4.5-.6,1.2-.6,2.1v5.1h-2.7v-10.2h2.4c0,.8.1,1.3.2,1.6.7-1.3,1.7-1.9,3.3-1.9s2,.4,2.7,1.1Z"/>
    <path class="st6" d="M144.6,12.7h2.7v14.9h-2.4c0-.8-.1-1.3-.2-1.5-.4.6-.8,1-1.4,1.3-.6.3-1.2.4-1.9.4s-1.6-.2-2.3-.6c-.7-.4-1.2-1-1.7-1.8-.4-.8-.6-1.8-.6-2.9s.2-2.1.6-2.9c.4-.8,1-1.4,1.7-1.8.7-.4,1.5-.6,2.3-.6s1.2.1,1.7.4c.5.2,1,.6,1.3,1.1v-6ZM143.9,24.7c.5-.5.7-1.2.7-2.2s-.2-1.7-.7-2.2c-.5-.5-1-.7-1.7-.7s-1.3.3-1.7.8c-.4.5-.7,1.2-.7,2.1s.2,1.6.7,2.2c.4.5,1,.8,1.7.8s1.3-.2,1.7-.7Z"/>
  </g>
  <rect class="st5" x="10" y="10" width="6.2" height="20"/>
  <rect class="st6" x="23.8" y="10" width="6.2" height="20"/>
  <polygon class="st5" points="30 30 10 30 10 23.8 23.8 23.8 30 30"/>
</svg>