<svg width="71" height="40" viewBox="0 0 71 40" fill="none" xmlns="http://www.w3.org/2000/svg">
<g clip-path="url(#clip0_593_16192)">
<path d="M37.2121 17.5651C34.8605 17.5651 32.8734 19.4521 32.8734 21.6827V22.6936C32.8734 22.9497 32.8734 23.4754 33.0247 23.9808C33.5541 25.7869 35.2387 27 37.2121 27C39.1854 27 40.87 25.7869 41.3995 23.9808C41.5507 23.4754 41.5507 22.9497 41.5507 22.6936V21.6827C41.5507 19.4521 39.5636 17.5651 37.2121 17.5651ZM37.2121 19.4318C38.5322 19.4318 39.6943 20.4832 39.6943 21.6827V22.6936C39.6943 22.8621 39.6943 23.2058 39.6186 23.4552C39.3917 24.2302 38.6216 25.14 37.2121 25.14C35.8025 25.14 35.0324 24.2369 34.8055 23.4552C34.7299 23.2058 34.7299 22.8621 34.7299 22.6936V21.6827C34.7299 20.4832 35.885 19.4318 37.2121 19.4318Z" fill="#1D6CD6" fill-opacity="0.32"/>
<path d="M37.2121 17.5651C34.8605 17.5651 32.8734 19.4521 32.8734 21.6827V22.6936C32.8734 22.9497 32.8734 23.4754 33.0247 23.9808C33.5541 25.7869 35.2387 27 37.2121 27C39.1854 27 40.87 25.7869 41.3995 23.9808C41.5507 23.4754 41.5507 22.9497 41.5507 22.6936V21.6827C41.5507 19.4521 39.5636 17.5651 37.2121 17.5651ZM37.2121 19.4318C38.5322 19.4318 39.6943 20.4832 39.6943 21.6827V22.6936C39.6943 22.8621 39.6943 23.2058 39.6186 23.4552C39.3917 24.2302 38.6216 25.14 37.2121 25.14C35.8025 25.14 35.0324 24.2369 34.8055 23.4552C34.7299 23.2058 34.7299 22.8621 34.7299 22.6936V21.6827C34.7299 20.4832 35.885 19.4318 37.2121 19.4318Z" fill="black" fill-opacity="0.32"/>
<path d="M20.8476 17.6392C18.4754 17.6392 16.3989 19.6475 16.3989 21.9388V22.4645C16.3989 25.0254 18.3723 27 20.8476 27C22.8072 27 24.2168 26.0026 24.9869 24.3851L23.4123 23.664C22.8347 24.8771 21.6865 25.2612 20.8338 25.2612C19.2799 25.2612 18.4204 23.9134 18.3104 22.9295H25.2344C25.2344 22.9295 25.2619 22.7812 25.2619 21.9523C25.2619 19.297 23.2129 17.6392 20.8407 17.6392H20.8476ZM18.3723 21.4468C18.4823 20.2742 19.6237 19.3038 20.8476 19.3038C22.154 19.3038 23.3023 20.2338 23.3023 21.4468H18.3723Z" fill="#1D6CD6" fill-opacity="0.32"/>
<path d="M20.8476 17.6392C18.4754 17.6392 16.3989 19.6475 16.3989 21.9388V22.4645C16.3989 25.0254 18.3723 27 20.8476 27C22.8072 27 24.2168 26.0026 24.9869 24.3851L23.4123 23.664C22.8347 24.8771 21.6865 25.2612 20.8338 25.2612C19.2799 25.2612 18.4204 23.9134 18.3104 22.9295H25.2344C25.2344 22.9295 25.2619 22.7812 25.2619 21.9523C25.2619 19.297 23.2129 17.6392 20.8407 17.6392H20.8476ZM18.3723 21.4468C18.4823 20.2742 19.6237 19.3038 20.8476 19.3038C22.154 19.3038 23.3023 20.2338 23.3023 21.4468H18.3723Z" fill="black" fill-opacity="0.32"/>
<path d="M47.7734 17.5852C46.8589 17.5852 46.1163 17.8346 45.525 18.1783V17.4774L43.6204 18.2457V26.7304H45.525V20.1462C45.9581 19.6677 46.6801 19.1622 47.7734 19.1622C49.6986 19.1622 50.0218 20.3551 50.0218 21.1031V26.7304H51.9264V21.5007C51.9264 18.4209 50.1524 17.5852 47.7734 17.5852Z" fill="#1D6CD6" fill-opacity="0.32"/>
<path d="M47.7734 17.5852C46.8589 17.5852 46.1163 17.8346 45.525 18.1783V17.4774L43.6204 18.2457V26.7304H45.525V20.1462C45.9581 19.6677 46.6801 19.1622 47.7734 19.1622C49.6986 19.1622 50.0218 20.3551 50.0218 21.1031V26.7304H51.9264V21.5007C51.9264 18.4209 50.1524 17.5852 47.7734 17.5852Z" fill="black" fill-opacity="0.32"/>
<path d="M29.9924 15.3411L28.081 16.1093V17.6391H26.4583V19.5059H28.081V26.7304H29.9924V19.5059H31.6151V17.6391H29.9924V15.3411Z" fill="#1D6CD6" fill-opacity="0.32"/>
<path d="M29.9924 15.3411L28.081 16.1093V17.6391H26.4583V19.5059H28.081V26.7304H29.9924V19.5059H31.6151V17.6391H29.9924V15.3411Z" fill="black" fill-opacity="0.32"/>
<path d="M56.0038 24.8636H54.0992V26.7304H56.0038V24.8636Z" fill="#1D6CD6" fill-opacity="0.32"/>
<path d="M56.0038 24.8636H54.0992V26.7304H56.0038V24.8636Z" fill="black" fill-opacity="0.32"/>
<path d="M65.0111 18.3671C64.3785 17.8953 63.6016 17.5988 62.6802 17.5651C60.3493 17.4842 58.6785 18.549 58.1353 20.7595C57.8877 21.7502 57.9496 23.0171 58.0803 23.6237C58.4447 25.3017 59.8474 27.0068 62.4327 27C63.5741 27 64.3992 26.6631 65.0111 26.1441V26.7372H66.9157V17.5583H65.0111V18.3671ZM62.4327 25.1333C60.9819 25.1333 60.2462 24.1156 59.978 23.3541C59.7786 22.788 59.6686 22.0804 59.868 21.1436C60.1774 19.6812 61.2913 19.1421 62.5289 19.2162C63.8835 19.2903 65.0111 20.3484 65.0111 22.2286C65.0111 24.1089 63.8835 25.1333 62.4327 25.1333Z" fill="#1D6CD6" fill-opacity="0.32"/>
<path d="M65.0111 18.3671C64.3785 17.8953 63.6016 17.5988 62.6802 17.5651C60.3493 17.4842 58.6785 18.549 58.1353 20.7595C57.8877 21.7502 57.9496 23.0171 58.0803 23.6237C58.4447 25.3017 59.8474 27.0068 62.4327 27C63.5741 27 64.3992 26.6631 65.0111 26.1441V26.7372H66.9157V17.5583H65.0111V18.3671ZM62.4327 25.1333C60.9819 25.1333 60.2462 24.1156 59.978 23.3541C59.7786 22.788 59.6686 22.0804 59.868 21.1436C60.1774 19.6812 61.2913 19.1421 62.5289 19.2162C63.8835 19.2903 65.0111 20.3484 65.0111 22.2286C65.0111 24.1089 63.8835 25.1333 62.4327 25.1333Z" fill="black" fill-opacity="0.32"/>
<path d="M70.9931 17.5583H69.0885V26.7372H70.9931V17.5583Z" fill="#1D6CD6" fill-opacity="0.32"/>
<path d="M70.9931 17.5583H69.0885V26.7372H70.9931V17.5583Z" fill="black" fill-opacity="0.32"/>
<path d="M70.9931 14.0471H69.0885V15.9139H70.9931V14.0471Z" fill="#1D6CD6" fill-opacity="0.32"/>
<path d="M70.9931 14.0471H69.0885V15.9139H70.9931V14.0471Z" fill="black" fill-opacity="0.32"/>
<path d="M13.401 14H12.0809H11.297L7.02712 22.6734L2.70221 14H1.90461H0.591323H0V26.7304H1.90461V16.635L7.04087 26.9326L12.0809 16.6957V26.7304H13.9855V14H13.401Z" fill="#1D6CD6" fill-opacity="0.32"/>
<path d="M13.401 14H12.0809H11.297L7.02712 22.6734L2.70221 14H1.90461H0.591323H0V26.7304H1.90461V16.635L7.04087 26.9326L12.0809 16.6957V26.7304H13.9855V14H13.401Z" fill="black" fill-opacity="0.32"/>
</g>
<defs>
<clipPath id="clip0_593_16192">
<rect width="71" height="13" fill="white" transform="translate(0 14)"/>
</clipPath>
</defs>
</svg>
