<svg width="32" height="32" viewBox="0 0 32 32" fill="none" xmlns="http://www.w3.org/2000/svg">
<path fill-rule="evenodd" clip-rule="evenodd" d="M15 7H13V5H19V7H17V8H23C24.1046 8 25 8.89543 25 10V21C25 22.1046 24.1046 23 23 23H18L14 25.6667L12 27V25V24.5963V23H10H9C7.89543 23 7 22.1046 7 21V15V10C7 8.89543 7.89543 8 9 8H15V7ZM14 21V23V23.263L16.8906 21.3359L17.3944 21H18H23V10H9V15L9 21H12H14ZM11.32 17.01C11.9138 17.8018 13.638 19.35 16 19.35C18.362 19.35 20.0862 17.8018 20.68 17.01L19.32 15.99C18.9138 16.5316 17.638 17.65 16 17.65C14.362 17.65 13.0862 16.5316 12.68 15.99L11.32 17.01ZM11 13C11 12.4477 11.4477 12 12 12C12.5523 12 13 12.4477 13 13C13 13.5523 12.5523 14 12 14C11.4477 14 11 13.5523 11 13ZM20 12C19.4477 12 19 12.4477 19 13C19 13.5523 19.4477 14 20 14C20.5523 14 21 13.5523 21 13C21 12.4477 20.5523 12 20 12Z" fill="#1D6CD6" fill-opacity="0.32"/>
<path fill-rule="evenodd" clip-rule="evenodd" d="M15 7H13V5H19V7H17V8H23C24.1046 8 25 8.89543 25 10V21C25 22.1046 24.1046 23 23 23H18L14 25.6667L12 27V25V24.5963V23H10H9C7.89543 23 7 22.1046 7 21V15V10C7 8.89543 7.89543 8 9 8H15V7ZM14 21V23V23.263L16.8906 21.3359L17.3944 21H18H23V10H9V15L9 21H12H14ZM11.32 17.01C11.9138 17.8018 13.638 19.35 16 19.35C18.362 19.35 20.0862 17.8018 20.68 17.01L19.32 15.99C18.9138 16.5316 17.638 17.65 16 17.65C14.362 17.65 13.0862 16.5316 12.68 15.99L11.32 17.01ZM11 13C11 12.4477 11.4477 12 12 12C12.5523 12 13 12.4477 13 13C13 13.5523 12.5523 14 12 14C11.4477 14 11 13.5523 11 13ZM20 12C19.4477 12 19 12.4477 19 13C19 13.5523 19.4477 14 20 14C20.5523 14 21 13.5523 21 13C21 12.4477 20.5523 12 20 12Z" fill="black" fill-opacity="0.32"/>
</svg>
