<svg width="32" height="32" viewBox="0 0 32 32" fill="none" xmlns="http://www.w3.org/2000/svg">
<path fill-rule="evenodd" clip-rule="evenodd" d="M24 21V23H22H10H8V21V11L16 5L24 11V21ZM16 7.5L10 12V21H22V12L16 7.5Z" fill="#1D6CD6" fill-opacity="0.32"/>
<path fill-rule="evenodd" clip-rule="evenodd" d="M24 21V23H22H10H8V21V11L16 5L24 11V21ZM16 7.5L10 12V21H22V12L16 7.5Z" fill="black" fill-opacity="0.32"/>
<path d="M12.8889 16.6667H17.7778C17.8957 16.6667 18.0087 16.6228 18.092 16.5446C18.1754 16.4665 18.2222 16.3605 18.2222 16.25C18.2222 16.1395 18.1754 16.0335 18.092 15.9554C18.0087 15.8772 17.8957 15.8333 17.7778 15.8333H14.2222C13.6329 15.8333 13.0676 15.6138 12.6509 15.2231C12.2341 14.8324 12 14.3025 12 13.75C12 13.1975 12.2341 12.6676 12.6509 12.2769C13.0676 11.8862 13.6329 11.6667 14.2222 11.6667H15.1111V10H16.8889V11.6667H19.1111V13.3333H14.2222C14.1043 13.3333 13.9913 13.3772 13.908 13.4554C13.8246 13.5335 13.7778 13.6395 13.7778 13.75C13.7778 13.8605 13.8246 13.9665 13.908 14.0446C13.9913 14.1228 14.1043 14.1667 14.2222 14.1667H17.7778C18.3671 14.1667 18.9324 14.3862 19.3491 14.7769C19.7659 15.1676 20 15.6975 20 16.25C20 16.8025 19.7659 17.3324 19.3491 17.7231C18.9324 18.1138 18.3671 18.3333 17.7778 18.3333H16.8889V20H15.1111V18.3333H12.8889V16.6667Z" fill="#1D6CD6" fill-opacity="0.32"/>
<path d="M12.8889 16.6667H17.7778C17.8957 16.6667 18.0087 16.6228 18.092 16.5446C18.1754 16.4665 18.2222 16.3605 18.2222 16.25C18.2222 16.1395 18.1754 16.0335 18.092 15.9554C18.0087 15.8772 17.8957 15.8333 17.7778 15.8333H14.2222C13.6329 15.8333 13.0676 15.6138 12.6509 15.2231C12.2341 14.8324 12 14.3025 12 13.75C12 13.1975 12.2341 12.6676 12.6509 12.2769C13.0676 11.8862 13.6329 11.6667 14.2222 11.6667H15.1111V10H16.8889V11.6667H19.1111V13.3333H14.2222C14.1043 13.3333 13.9913 13.3772 13.908 13.4554C13.8246 13.5335 13.7778 13.6395 13.7778 13.75C13.7778 13.8605 13.8246 13.9665 13.908 14.0446C13.9913 14.1228 14.1043 14.1667 14.2222 14.1667H17.7778C18.3671 14.1667 18.9324 14.3862 19.3491 14.7769C19.7659 15.1676 20 15.6975 20 16.25C20 16.8025 19.7659 17.3324 19.3491 17.7231C18.9324 18.1138 18.3671 18.3333 17.7778 18.3333H16.8889V20H15.1111V18.3333H12.8889V16.6667Z" fill="black" fill-opacity="0.32"/>
<path fill-rule="evenodd" clip-rule="evenodd" d="M13 28.125V26.375L15.58 24.44L16 24.125L16.42 24.44L19 26.375V28.125L16 25.875L13 28.125Z" fill="#1D6CD6" fill-opacity="0.32"/>
<path fill-rule="evenodd" clip-rule="evenodd" d="M13 28.125V26.375L15.58 24.44L16 24.125L16.42 24.44L19 26.375V28.125L16 25.875L13 28.125Z" fill="black" fill-opacity="0.32"/>
<path fill-rule="evenodd" clip-rule="evenodd" d="M2.875 13H4.625L6.56 15.58L6.875 16L6.56 16.42L4.625 19H2.875L5.125 16L2.875 13Z" fill="#1D6CD6" fill-opacity="0.32"/>
<path fill-rule="evenodd" clip-rule="evenodd" d="M2.875 13H4.625L6.56 15.58L6.875 16L6.56 16.42L4.625 19H2.875L5.125 16L2.875 13Z" fill="black" fill-opacity="0.32"/>
<path fill-rule="evenodd" clip-rule="evenodd" d="M29.125 19H27.375L25.44 16.42L25.125 16L25.44 15.58L27.375 13H29.125L26.875 16L29.125 19Z" fill="#1D6CD6" fill-opacity="0.32"/>
<path fill-rule="evenodd" clip-rule="evenodd" d="M29.125 19H27.375L25.44 16.42L25.125 16L25.44 15.58L27.375 13H29.125L26.875 16L29.125 19Z" fill="black" fill-opacity="0.32"/>
</svg>
