<svg width="32" height="32" viewBox="0 0 32 32" fill="none" xmlns="http://www.w3.org/2000/svg">
<path fill-rule="evenodd" clip-rule="evenodd" d="M20 14.5C20 17.5376 17.5376 20 14.5 20C11.4624 20 9 17.5376 9 14.5C9 11.4624 11.4624 9 14.5 9C17.5376 9 20 11.4624 20 14.5ZM19.0491 20.4633C17.7873 21.4274 16.2105 22 14.5 22C10.3579 22 7 18.6421 7 14.5C7 10.3579 10.3579 7 14.5 7C18.6421 7 22 10.3579 22 14.5C22 16.2105 21.4274 17.7873 20.4633 19.0491L24.7071 23.2929L23.2929 24.7071L19.0491 20.4633Z" fill="#1D6CD6" fill-opacity="0.32"/>
<path fill-rule="evenodd" clip-rule="evenodd" d="M20 14.5C20 17.5376 17.5376 20 14.5 20C11.4624 20 9 17.5376 9 14.5C9 11.4624 11.4624 9 14.5 9C17.5376 9 20 11.4624 20 14.5ZM19.0491 20.4633C17.7873 21.4274 16.2105 22 14.5 22C10.3579 22 7 18.6421 7 14.5C7 10.3579 10.3579 7 14.5 7C18.6421 7 22 10.3579 22 14.5C22 16.2105 21.4274 17.7873 20.4633 19.0491L24.7071 23.2929L23.2929 24.7071L19.0491 20.4633Z" fill="black" fill-opacity="0.32"/>
<path fill-rule="evenodd" clip-rule="evenodd" d="M14.5 18C16.433 18 18 16.433 18 14.5C18 14.1413 17.946 13.7952 17.8458 13.4694C17.5714 14.0771 16.9601 14.5 16.25 14.5C15.2835 14.5 14.5 13.7165 14.5 12.75C14.5 12.0399 14.9229 11.4286 15.5306 11.1542C15.2048 11.054 14.8587 11 14.5 11C12.567 11 11 12.567 11 14.5C11 16.433 12.567 18 14.5 18Z" fill="#1D6CD6" fill-opacity="0.32"/>
<path fill-rule="evenodd" clip-rule="evenodd" d="M14.5 18C16.433 18 18 16.433 18 14.5C18 14.1413 17.946 13.7952 17.8458 13.4694C17.5714 14.0771 16.9601 14.5 16.25 14.5C15.2835 14.5 14.5 13.7165 14.5 12.75C14.5 12.0399 14.9229 11.4286 15.5306 11.1542C15.2048 11.054 14.8587 11 14.5 11C12.567 11 11 12.567 11 14.5C11 16.433 12.567 18 14.5 18Z" fill="black" fill-opacity="0.32"/>
</svg>
