<svg width="32" height="32" viewBox="0 0 32 32" fill="none" xmlns="http://www.w3.org/2000/svg">
<path fill-rule="evenodd" clip-rule="evenodd" d="M11.8779 11.1563C10.5414 12.4928 9.87285 14.2421 9.87158 15.995L7.87158 15.9936C7.87321 13.7324 8.73745 11.4684 10.4637 9.74214C13.9198 6.286 19.5233 6.286 22.9795 9.74214C26.4356 13.1983 26.4356 18.8018 22.9795 22.2579C19.5233 25.7141 13.9198 25.7141 10.4637 22.2579L11.8779 20.8437C14.553 23.5188 18.8902 23.5188 21.5653 20.8437C24.2403 18.1686 24.2403 13.8314 21.5653 11.1563C18.8902 8.48126 14.553 8.48126 11.8779 11.1563ZM8.82843 16H6L7.58579 17.5858L8 18L9 19L10 18L10.4142 17.5858L12 16H9.17157H8.82843ZM15.7 11V16V16.3314L15.9343 16.5657L18.4343 19.0657L19.5657 17.9343L17.3 15.6686V11H15.7Z" fill="#1D6CD6" fill-opacity="0.32"/>
<path fill-rule="evenodd" clip-rule="evenodd" d="M11.8779 11.1563C10.5414 12.4928 9.87285 14.2421 9.87158 15.995L7.87158 15.9936C7.87321 13.7324 8.73745 11.4684 10.4637 9.74214C13.9198 6.286 19.5233 6.286 22.9795 9.74214C26.4356 13.1983 26.4356 18.8018 22.9795 22.2579C19.5233 25.7141 13.9198 25.7141 10.4637 22.2579L11.8779 20.8437C14.553 23.5188 18.8902 23.5188 21.5653 20.8437C24.2403 18.1686 24.2403 13.8314 21.5653 11.1563C18.8902 8.48126 14.553 8.48126 11.8779 11.1563ZM8.82843 16H6L7.58579 17.5858L8 18L9 19L10 18L10.4142 17.5858L12 16H9.17157H8.82843ZM15.7 11V16V16.3314L15.9343 16.5657L18.4343 19.0657L19.5657 17.9343L17.3 15.6686V11H15.7Z" fill="black" fill-opacity="0.32"/>
</svg>
