<svg width="32" height="32" viewBox="0 0 32 32" fill="none" xmlns="http://www.w3.org/2000/svg">
<path fill-rule="evenodd" clip-rule="evenodd" d="M17 18H20L20 11.2361L15.9999 9.23607L11.9999 11.2361L12 18H15V13H17V18ZM9.99989 10L9.99994 14.15H8.20002H7.45583L7.35748 14.8877L6.15748 23.8877L6.02916 24.85H7.00002H25H25.9709L25.8426 23.8877L24.6426 14.8877L24.5442 14.15H23.8H22L22 10L16 7L9.99989 10ZM8.94421 15.85H9.99995L9.99999 20L20 20L22 20V18L22 15.85H23.0558L24.0292 23.15H7.97087L8.94421 15.85Z" fill="#1D6CD6" fill-opacity="0.32"/>
<path fill-rule="evenodd" clip-rule="evenodd" d="M17 18H20L20 11.2361L15.9999 9.23607L11.9999 11.2361L12 18H15V13H17V18ZM9.99989 10L9.99994 14.15H8.20002H7.45583L7.35748 14.8877L6.15748 23.8877L6.02916 24.85H7.00002H25H25.9709L25.8426 23.8877L24.6426 14.8877L24.5442 14.15H23.8H22L22 10L16 7L9.99989 10ZM8.94421 15.85H9.99995L9.99999 20L20 20L22 20V18L22 15.85H23.0558L24.0292 23.15H7.97087L8.94421 15.85Z" fill="black" fill-opacity="0.32"/>
</svg>
