<svg width="32" height="32" viewBox="0 0 32 32" fill="none" xmlns="http://www.w3.org/2000/svg">
<path fill-rule="evenodd" clip-rule="evenodd" d="M17 8.07089V6H15V8.07089C11.6077 8.55612 9 11.4735 9 15V17.5858L7.87868 18.7071C7.31607 19.2697 7 20.0328 7 20.8284V22C7 23.1046 7.89543 24 9 24H16H23C24.1046 24 25 23.1046 25 22V20.8284C25 20.0328 24.6839 19.2697 24.1213 18.7071L23 17.5858V15C23 11.4735 20.3923 8.55612 17 8.07089ZM16 10C13.2386 10 11 12.2386 11 15V17.5858C11 18.1162 10.7893 18.6249 10.4142 19L9.29289 20.1213C9.10536 20.3089 9 20.5632 9 20.8284V22H16H23V20.8284C23 20.5632 22.8946 20.3089 22.7071 20.1213L21.5858 19C21.2107 18.6249 21 18.1162 21 17.5858V15C21 12.2386 18.7614 10 16 10ZM14 27V25H18V27H14Z" fill="#1D6CD6" fill-opacity="0.32"/>
<path fill-rule="evenodd" clip-rule="evenodd" d="M17 8.07089V6H15V8.07089C11.6077 8.55612 9 11.4735 9 15V17.5858L7.87868 18.7071C7.31607 19.2697 7 20.0328 7 20.8284V22C7 23.1046 7.89543 24 9 24H16H23C24.1046 24 25 23.1046 25 22V20.8284C25 20.0328 24.6839 19.2697 24.1213 18.7071L23 17.5858V15C23 11.4735 20.3923 8.55612 17 8.07089ZM16 10C13.2386 10 11 12.2386 11 15V17.5858C11 18.1162 10.7893 18.6249 10.4142 19L9.29289 20.1213C9.10536 20.3089 9 20.5632 9 20.8284V22H16H23V20.8284C23 20.5632 22.8946 20.3089 22.7071 20.1213L21.5858 19C21.2107 18.6249 21 18.1162 21 17.5858V15C21 12.2386 18.7614 10 16 10ZM14 27V25H18V27H14Z" fill="black" fill-opacity="0.32"/>
</svg>
