<svg width="32" height="32" viewBox="0 0 32 32" fill="none" xmlns="http://www.w3.org/2000/svg">
<circle cx="16" cy="16" r="8" stroke="#1D6CD6" stroke-opacity="0.32" stroke-width="2"/>
<circle cx="16" cy="16" r="8" stroke="black" stroke-opacity="0.32" stroke-width="2"/>
<path d="M12.8889 17.6667H17.7778C17.8957 17.6667 18.0087 17.6228 18.092 17.5446C18.1754 17.4665 18.2222 17.3605 18.2222 17.25C18.2222 17.1395 18.1754 17.0335 18.092 16.9554C18.0087 16.8772 17.8957 16.8333 17.7778 16.8333H14.2222C13.6329 16.8333 13.0676 16.6138 12.6509 16.2231C12.2341 15.8324 12 15.3025 12 14.75C12 14.1975 12.2341 13.6676 12.6509 13.2769C13.0676 12.8862 13.6329 12.6667 14.2222 12.6667H15.1111V11H16.8889V12.6667H19.1111V14.3333H14.2222C14.1043 14.3333 13.9913 14.3772 13.908 14.4554C13.8246 14.5335 13.7778 14.6395 13.7778 14.75C13.7778 14.8605 13.8246 14.9665 13.908 15.0446C13.9913 15.1228 14.1043 15.1667 14.2222 15.1667H17.7778C18.3671 15.1667 18.9324 15.3862 19.3491 15.7769C19.7659 16.1676 20 16.6975 20 17.25C20 17.8025 19.7659 18.3324 19.3491 18.7231C18.9324 19.1138 18.3671 19.3333 17.7778 19.3333H16.8889V21H15.1111V19.3333H12.8889V17.6667Z" fill="#1D6CD6" fill-opacity="0.32"/>
<path d="M12.8889 17.6667H17.7778C17.8957 17.6667 18.0087 17.6228 18.092 17.5446C18.1754 17.4665 18.2222 17.3605 18.2222 17.25C18.2222 17.1395 18.1754 17.0335 18.092 16.9554C18.0087 16.8772 17.8957 16.8333 17.7778 16.8333H14.2222C13.6329 16.8333 13.0676 16.6138 12.6509 16.2231C12.2341 15.8324 12 15.3025 12 14.75C12 14.1975 12.2341 13.6676 12.6509 13.2769C13.0676 12.8862 13.6329 12.6667 14.2222 12.6667H15.1111V11H16.8889V12.6667H19.1111V14.3333H14.2222C14.1043 14.3333 13.9913 14.3772 13.908 14.4554C13.8246 14.5335 13.7778 14.6395 13.7778 14.75C13.7778 14.8605 13.8246 14.9665 13.908 15.0446C13.9913 15.1228 14.1043 15.1667 14.2222 15.1667H17.7778C18.3671 15.1667 18.9324 15.3862 19.3491 15.7769C19.7659 16.1676 20 16.6975 20 17.25C20 17.8025 19.7659 18.3324 19.3491 18.7231C18.9324 19.1138 18.3671 19.3333 17.7778 19.3333H16.8889V21H15.1111V19.3333H12.8889V17.6667Z" fill="black" fill-opacity="0.32"/>
</svg>
