<svg width="32" height="32" viewBox="0 0 32 32" fill="none" xmlns="http://www.w3.org/2000/svg">
<path d="M7 9H25" stroke="#1D6CD6" stroke-opacity="0.32" stroke-width="2"/>
<path d="M7 9H25" stroke="black" stroke-opacity="0.32" stroke-width="2"/>
<path d="M7 15H25" stroke="#1D6CD6" stroke-opacity="0.32" stroke-width="2"/>
<path d="M7 15H25" stroke="black" stroke-opacity="0.32" stroke-width="2"/>
<path d="M7 21H11" stroke="#1D6CD6" stroke-opacity="0.32" stroke-width="2"/>
<path d="M7 21H11" stroke="black" stroke-opacity="0.32" stroke-width="2"/>
<path d="M18.5 18.8C20.7262 18.8 22.1699 19.5928 23.056 20.3561C23.5043 20.7423 23.8161 21.127 24.0134 21.4103C24.0352 21.4415 24.0555 21.4715 24.0744 21.5C24.0555 21.5285 24.0352 21.5585 24.0134 21.5897C23.8161 21.873 23.5043 22.2577 23.056 22.6439C22.1699 23.4072 20.7262 24.2 18.5 24.2C16.2738 24.2 14.8301 23.4072 13.944 22.6439C13.4957 22.2577 13.1839 21.873 12.9866 21.5897C12.9648 21.5585 12.9445 21.5285 12.9256 21.5C12.9445 21.4715 12.9648 21.4415 12.9866 21.4103C13.1839 21.127 13.4957 20.7423 13.944 20.3561C14.8301 19.5928 16.2738 18.8 18.5 18.8Z" stroke="#1D6CD6" stroke-opacity="0.32" stroke-width="1.6"/>
<path d="M18.5 18.8C20.7262 18.8 22.1699 19.5928 23.056 20.3561C23.5043 20.7423 23.8161 21.127 24.0134 21.4103C24.0352 21.4415 24.0555 21.4715 24.0744 21.5C24.0555 21.5285 24.0352 21.5585 24.0134 21.5897C23.8161 21.873 23.5043 22.2577 23.056 22.6439C22.1699 23.4072 20.7262 24.2 18.5 24.2C16.2738 24.2 14.8301 23.4072 13.944 22.6439C13.4957 22.2577 13.1839 21.873 12.9866 21.5897C12.9648 21.5585 12.9445 21.5285 12.9256 21.5C12.9445 21.4715 12.9648 21.4415 12.9866 21.4103C13.1839 21.127 13.4957 20.7423 13.944 20.3561C14.8301 19.5928 16.2738 18.8 18.5 18.8Z" stroke="black" stroke-opacity="0.32" stroke-width="1.6"/>
<path fill-rule="evenodd" clip-rule="evenodd" d="M18.5 23C19.3284 23 20 22.3284 20 21.5C20 21.2684 19.9475 21.0491 19.8538 20.8533C19.7633 20.9439 19.6382 21 19.5 21C19.2239 21 19 20.7761 19 20.5C19 20.3618 19.0561 20.2367 19.1467 20.1462C18.9509 20.0525 18.7316 20 18.5 20C17.6716 20 17 20.6716 17 21.5C17 22.3284 17.6716 23 18.5 23Z" fill="#1D6CD6" fill-opacity="0.32"/>
<path fill-rule="evenodd" clip-rule="evenodd" d="M18.5 23C19.3284 23 20 22.3284 20 21.5C20 21.2684 19.9475 21.0491 19.8538 20.8533C19.7633 20.9439 19.6382 21 19.5 21C19.2239 21 19 20.7761 19 20.5C19 20.3618 19.0561 20.2367 19.1467 20.1462C18.9509 20.0525 18.7316 20 18.5 20C17.6716 20 17 20.6716 17 21.5C17 22.3284 17.6716 23 18.5 23Z" fill="black" fill-opacity="0.32"/>
</svg>
