<svg width="32" height="32" viewBox="0 0 32 32" fill="none" xmlns="http://www.w3.org/2000/svg">
<mask id="path-1-inside-1_52_1936" fill="white">
<path fill-rule="evenodd" clip-rule="evenodd" d="M16 7H8.29999V27.25L16 22.75L23.7 27.25V7H16H16Z"/>
</mask>
<path d="M8.29999 7V5H6.29999V7H8.29999ZM8.29999 27.25H6.29999V30.7353L9.30912 28.9767L8.29999 27.25ZM16 22.75L17.0091 21.0233L16 20.4335L14.9909 21.0233L16 22.75ZM23.7 27.25L22.6908 28.9767L25.7 30.7353V27.25H23.7ZM23.7 7H25.7V5H23.7V7ZM8.29999 9H16V5H8.29999V9ZM10.3 27.25V7H6.29999V27.25H10.3ZM14.9909 21.0233L7.29085 25.5233L9.30912 28.9767L17.0091 24.4767L14.9909 21.0233ZM14.9909 24.4767L22.6908 28.9767L24.7091 25.5233L17.0091 21.0233L14.9909 24.4767ZM25.7 27.25V7H21.7V27.25H25.7ZM23.7 5H16V9H23.7V5ZM16 5H16V9H16V5Z" fill="#1D6CD6" fill-opacity="0.32" mask="url(#path-1-inside-1_52_1936)"/>
<path d="M8.29999 7V5H6.29999V7H8.29999ZM8.29999 27.25H6.29999V30.7353L9.30912 28.9767L8.29999 27.25ZM16 22.75L17.0091 21.0233L16 20.4335L14.9909 21.0233L16 22.75ZM23.7 27.25L22.6908 28.9767L25.7 30.7353V27.25H23.7ZM23.7 7H25.7V5H23.7V7ZM8.29999 9H16V5H8.29999V9ZM10.3 27.25V7H6.29999V27.25H10.3ZM14.9909 21.0233L7.29085 25.5233L9.30912 28.9767L17.0091 24.4767L14.9909 21.0233ZM14.9909 24.4767L22.6908 28.9767L24.7091 25.5233L17.0091 21.0233L14.9909 24.4767ZM25.7 27.25V7H21.7V27.25H25.7ZM23.7 5H16V9H23.7V5ZM16 5H16V9H16V5Z" fill="black" fill-opacity="0.32" mask="url(#path-1-inside-1_52_1936)"/>
</svg>
