<svg width="24" height="24" viewBox="0 0 24 24" fill="none" xmlns="http://www.w3.org/2000/svg">
<path d="M0 4C0 1.79086 1.79086 0 4 0H20C22.2091 0 24 1.79086 24 4V20C24 22.2091 22.2091 24 20 24H4C1.79086 24 0 22.2091 0 20V4Z" fill="#1D6CD6"/>
<rect x="8.5" y="6.5" width="10" height="10" rx="1.5" stroke="white"/>
<path d="M8 13H13H19" stroke="white"/>
<path d="M8 8.5H13H19" stroke="white"/>
<rect width="1" height="1" transform="translate(10 14)" fill="white"/>
<rect width="2" height="3" transform="translate(9 16)" fill="white"/>
<rect width="2" height="3" transform="translate(16 16)" fill="white"/>
<rect width="1" height="1" transform="translate(16 14)" fill="white"/>
<rect x="4.5" y="6.5" width="2" height="6" stroke="white"/>
<rect x="5" y="13" width="1" height="6" fill="white"/>
</svg>
