<svg width="24" height="24" viewBox="0 0 24 24" fill="none" xmlns="http://www.w3.org/2000/svg">
<path d="M0 4C0 1.79086 1.79086 0 4 0H20C22.2091 0 24 1.79086 24 4V20C24 22.2091 22.2091 24 20 24H4C1.79086 24 0 22.2091 0 20V4Z" fill="#1D6CD6" fill-opacity="0.12"/>
<path d="M0 4C0 1.79086 1.79086 0 4 0H20C22.2091 0 24 1.79086 24 4V20C24 22.2091 22.2091 24 20 24H4C1.79086 24 0 22.2091 0 20V4Z" fill="black" fill-opacity="0.24"/>
<path d="M5.5 10.2071V19.5H14.5H18.5V11V9.5V9.43426L17.7774 9.91603L17.4363 10.1434L17.1464 9.85355L16 8.70711L14.8536 9.85355L14.5 10.2071L14.1464 9.85355L13 8.70711L11.8536 9.85355L11.5 10.2071L11.1464 9.85355L10 8.70711L8.85355 9.85355L8.5 10.2071L8.14645 9.85355L7 8.70711L5.5 10.2071Z" stroke="white"/>
<rect x="7.5" y="12.5" width="5" height="2" stroke="white"/>
<path d="M11.5 6V10M7.5 6V9" stroke="white"/>
<path d="M13.5 7V6L12.5 3.5H10.5M12 9.5L14.6461 5.34188C15.1313 4.57943 16.1143 4.30715 16.9226 4.71131V4.71131C17.7938 5.14689 18.1469 6.20622 17.7113 7.07738L16.5 9.5" stroke="white"/>
<path d="M17.5 7.5C17.8333 7.33334 18.6 7.1 19 7.5C19.4 7.9 18.8333 9 18.5 9.5" stroke="white"/>
<path d="M15.5 6.5L16 7.5" stroke="white"/>
<path d="M7.5 6.99999C6.5 6.83332 4.7 7.19999 5.5 9.99999" stroke="white"/>
<path d="M12.691 3.5L11.691 5.5H7.80902L8.80902 3.5H12.691Z" stroke="white"/>
</svg>
