<svg width="24" height="24" viewBox="0 0 24 24" fill="none" xmlns="http://www.w3.org/2000/svg">
<path d="M0 4C0 1.79086 1.79086 0 4 0H20C22.2091 0 24 1.79086 24 4V20C24 22.2091 22.2091 24 20 24H4C1.79086 24 0 22.2091 0 20V4Z" fill="#1D6CD6" fill-opacity="0.12"/>
<path d="M0 4C0 1.79086 1.79086 0 4 0H20C22.2091 0 24 1.79086 24 4V20C24 22.2091 22.2091 24 20 24H4C1.79086 24 0 22.2091 0 20V4Z" fill="black" fill-opacity="0.24"/>
<path fill-rule="evenodd" clip-rule="evenodd" d="M11 3H11.5H14.5H15V3.5V5.5V6H14.5H12V6.92413L12.2481 7.06588L15.7481 9.06588L16 9.20984V9.5V12H18.5H19V12.5V18H21V19H3V18H5V12.5V12H5.5H8V9.5V9.20984L8.25193 9.06588L11 7.49555V5.5V3.5V3ZM18 18V13H16V18H18ZM12 5H14V4H12V5ZM15 18V9.79016L12 8.07588L9 9.79016V12V12.5V18H10V14.5V14H10.5H13.5H14V14.5V18H15ZM11 15V18H13V15H11ZM8 13V18H6V13H8ZM10.5 10H10V10.5V12.5V13H10.5H13.5H14V12.5V10.5V10H13.5H10.5ZM11 12V11H13V12H11Z" fill="white"/>
</svg>
