<svg width="40" height="40" viewBox="0 0 40 40" fill="none" xmlns="http://www.w3.org/2000/svg">
<path d="M19.8439 16.8933C22.0101 14.1565 22.2815 11.0967 22.3065 8.62599C25.3373 10.3345 26.7886 12.4231 27.2676 14.3595C27.8208 16.5958 27.1261 18.8066 25.7561 20.3317C25.4038 20.7239 25.1201 21.1187 24.9675 21.5081C24.8228 21.8774 24.7021 22.5311 25.1945 23.052C25.6147 23.4965 26.1953 23.5105 26.5112 23.485C26.8849 23.4549 27.2844 23.3391 27.6717 23.1797C28.812 22.7102 30.2638 21.6852 31.3915 20.1577C32.0201 22.0652 31.9755 24.2013 31.2247 25.9875C30.276 28.2441 28.1805 30 24.6722 30C20.4715 30 18.1387 28.2447 17.3374 25.964C16.5084 23.6044 17.1646 20.2786 19.8439 16.8933Z" stroke="#D4D8DF" stroke-width="2"/>
<path fill-rule="evenodd" clip-rule="evenodd" d="M14.1676 25H13H10.4464L12.7365 20.9923L13.9469 18.8741L11.6325 18.1026L11.5099 18.0618L16 13.0104L17.8094 15.046C18.2128 14.4247 18.5419 13.7949 18.8104 13.1617L17.338 11.5052L16 10L14.662 11.5052L9.44561 17.3737L8 19L9.06506 19.355L10.0643 19.6881L11 20L9.98807 21.7709L8.14286 25L7 27H9.3035H11H13V29V30V32H15H17H18.9576C17.7861 31.4952 16.8355 30.8158 16.0989 30H15V28.3875C14.4924 27.3693 14.2176 26.2253 14.1676 25Z" fill="#D4D8DF"/>
<g clip-path="url(#clip0_991_17615)">
<circle cx="32.5" cy="32.5" r="7.5" fill="#D4D8DF"/>
<path d="M28.5 32.5L31 35.5L36 30" stroke="white"/>
</g>
<defs>
<clipPath id="clip0_991_17615">
<rect width="15" height="15" fill="white" transform="translate(25 25)"/>
</clipPath>
</defs>
</svg>
