<svg width="40" height="40" viewBox="0 0 40 40" fill="none" xmlns="http://www.w3.org/2000/svg">
<g clip-path="url(#clip0_208_12703)">
<path d="M6 30C9 30 11 28.5 13 26.5C15 28.5 17 30 20 30C23 30 25 28.5 27 26.5C29 28.5 31 30 34 30" stroke="#63768F" stroke-width="2"/>
<path d="M8 22.5C11 22.5 13 21 15 19C17 21 19 22.5 22 22.5C25 22.5 27 21 29 19C31 21 33 22.5 36 22.5" stroke="#63768F" stroke-width="2"/>
<path d="M8 14.5C11 14.5 13 13 15 11C17 13 19 14.5 22 14.5C25 14.5 27 13 29 11C31 13 33 14.5 36 14.5" stroke="#63768F" stroke-width="2"/>
<path d="M-6 22.5C-4 22.5 -1 21 1 19C3 21 5 22.5 8 22.5C11 22.5 13 21 15 19C17 21 19 22.5 22 22.5" stroke="#63768F" stroke-width="2"/>
<path d="M-6 14.5C-4 14.5 -1 13 1 11C3 13 5 14.5 8 14.5C11 14.5 13 13 15 11C17 13 19 14.5 22 14.5" stroke="#63768F" stroke-width="2"/>
</g>
<g clip-path="url(#clip1_208_12703)">
<circle cx="32.5" cy="32.5" r="7.5" fill="#FF6E65"/>
<path d="M32.5 28L32.5 34" stroke="white"/>
<path d="M32.5 35.5L32.5 37" stroke="white"/>
</g>
<defs>
<clipPath id="clip0_208_12703">
<rect width="28" height="28" fill="white" transform="translate(6 6)"/>
</clipPath>
<clipPath id="clip1_208_12703">
<rect width="15" height="15" fill="white" transform="translate(25 25)"/>
</clipPath>
</defs>
</svg>
