<svg width="184" height="184" viewBox="0 0 184 184" fill="none" xmlns="http://www.w3.org/2000/svg">
<mask id="mask0_127_4830" style="mask-type:alpha" maskUnits="userSpaceOnUse" x="12" y="3" width="160" height="178">
<path d="M80 6.9282C87.4256 2.64102 96.5744 2.64102 104 6.9282L159.674 39.0718C167.1 43.359 171.674 51.282 171.674 59.8564V124.144C171.674 132.718 167.1 140.641 159.674 144.928L104 177.072C96.5744 181.359 87.4256 181.359 80 177.072L24.3257 144.928C16.9 140.641 12.3257 132.718 12.3257 124.144V59.8564C12.3257 51.282 16.9 43.359 24.3257 39.0718L80 6.9282Z" fill="#D9D9D9"/>
</mask>
<g mask="url(#mask0_127_4830)">
<path d="M80 6.9282C87.4256 2.64102 96.5744 2.64102 104 6.9282L159.674 39.0718C167.1 43.359 171.674 51.282 171.674 59.8564V124.144C171.674 132.718 167.1 140.641 159.674 144.928L104 177.072C96.5744 181.359 87.4256 181.359 80 177.072L24.3257 144.928C16.9 140.641 12.3257 132.718 12.3257 124.144V59.8564C12.3257 51.282 16.9 43.359 24.3257 39.0718L80 6.9282Z" fill="#1D6CD6" fill-opacity="0.02"/>
<path d="M80 6.9282C87.4256 2.64102 96.5744 2.64102 104 6.9282L159.674 39.0718C167.1 43.359 171.674 51.282 171.674 59.8564V124.144C171.674 132.718 167.1 140.641 159.674 144.928L104 177.072C96.5744 181.359 87.4256 181.359 80 177.072L24.3257 144.928C16.9 140.641 12.3257 132.718 12.3257 124.144V59.8564C12.3257 51.282 16.9 43.359 24.3257 39.0718L80 6.9282Z" fill="black" fill-opacity="0.02"/>
<path d="M87.4 77.8714L-0.985718 119.271L41.0714 185.643H103.829L196.486 140.3L87.4 77.8714Z" fill="url(#paint0_linear_127_4830)"/>
<path d="M55.5286 118.286L16.4286 142.271L27.6 148.514L65.7143 122.886L55.5286 118.286Z" fill="url(#paint1_linear_127_4830)"/>
<path d="M96.2715 137.343L51.9143 165.929L67.0286 170.529L105.143 143.257L96.2715 137.343Z" fill="url(#paint2_linear_127_4830)"/>
<path d="M82.1872 73.3138L184.121 87.5371V133.863L110.239 148.776L96.0154 121.91L82.1872 73.3138Z" fill="url(#paint3_linear_127_4830)" fill-opacity="0.7"/>
<g clip-path="url(#clip0_127_4830)">
<path d="M32.2152 29.4128L-3.94287 47.5011L14.1362 38.4597L50.2887 20.3714" fill="#D7D7D7"/>
<path opacity="0.06" d="M32.2152 29.4128L-3.94287 47.5011L14.1362 38.4597L50.2887 20.3714" fill="white"/>
<path d="M106.785 111.758L70.627 129.841V99.3209L106.785 81.2327V111.758Z" fill="#F1F1F1"/>
<path d="M70.627 102.711L106.785 84.6232V66.5405L70.627 84.6232V102.711Z" fill="#F7F8FA"/>
<path opacity="0.4" d="M105.655 85.1882L71.7565 102.146V99.886L105.655 82.9279V85.1882Z" fill="white"/>
<path d="M72.8861 83.493L70.627 84.6231V129.841L72.8861 128.711V83.493Z" fill="white"/>
<path d="M104.526 67.6706L106.785 66.5405V111.758L104.526 112.889V67.6706Z" fill="white"/>
<path opacity="0.3" d="M104.526 112.889L72.8861 128.711V127.581L104.526 111.758V112.889Z" fill="white"/>
<path opacity="0.29" d="M70.627 84.6231V129.841L106.785 111.758V66.5404L70.627 84.6231Z" fill="white"/>
<path d="M70.6269 129.841L34.4744 111.758V81.2327L70.6269 99.3209V129.841Z" fill="#F7F8FA"/>
<path d="M34.4744 84.6232L70.6269 102.711V84.6232L52.5479 57.4935L34.4744 66.5405V84.6232Z" fill="#F7F8FA"/>
<path opacity="0.4" d="M70.6269 102.711L36.7336 85.7533V83.493L70.6269 100.451V102.711Z" fill="white"/>
<path d="M36.7336 66.423H34.4744V111.641L36.7336 112.771V66.423Z" fill="white"/>
<path d="M68.3677 82.3628L70.6269 84.6232V129.841L68.3677 128.711V82.3628Z" fill="white"/>
<path opacity="0.3" d="M68.3677 128.711L36.7336 112.889V111.758L68.3677 127.581V128.711Z" fill="white"/>
<path d="M65.2139 106.79L53.9124 101.134V120.352L65.2139 126.003V106.79Z" fill="white"/>
<path d="M64.0843 125.438L55.0419 120.917V102.829L64.0843 107.355V125.438Z" fill="#C6C9D1"/>
<path opacity="0.3" d="M56.1715 120.352V103.4L55.0419 102.829V120.917L64.0843 125.438V124.308L56.1715 120.352Z" fill="white"/>
<path opacity="0.3" d="M59.5603 109.616L57.3011 108.485V107.355L59.5603 108.485V109.616Z" fill="white"/>
<path opacity="0.3" d="M62.9547 111.311L60.6899 110.181V109.05L62.9547 110.181V111.311Z" fill="white"/>
<path opacity="0.3" d="M59.5603 114.136L57.3011 113.006V111.876L59.5603 113.006V114.136Z" fill="white"/>
<path opacity="0.3" d="M62.9547 115.831L60.6899 114.701V113.571L62.9547 114.701V115.831Z" fill="white"/>
<path opacity="0.3" d="M59.5603 118.657L57.3011 117.527V116.397L59.5603 117.527V118.657Z" fill="white"/>
<path opacity="0.3" d="M62.9547 120.352L60.6899 119.222V118.092L62.9547 119.222V120.352Z" fill="white"/>
<path d="M52.5479 57.4935L34.4744 66.5405V68.8008L52.5479 59.7539L70.6269 86.8891V84.6232L52.5479 57.4935Z" fill="white"/>
<path opacity="0.6" d="M52.5479 57.4935L34.4744 66.5405V111.758L70.6269 129.841V84.6232L52.5479 57.4935Z" fill="white"/>
<path d="M70.627 84.6232L52.5479 57.4935L88.706 39.4108L106.785 66.5405L70.627 84.6232Z" fill="#D4D8DF"/>
<path d="M70.627 84.6232L52.5479 57.4935L88.706 39.4108L106.785 66.5405L70.627 84.6232Z" fill="white" fill-opacity="0.6"/>
<path d="M34.4744 66.5405L52.5479 57.4935L88.706 39.4108L70.6269 48.4522L34.4744 66.5405Z" fill="#D7D7D7"/>
<path opacity="0.06" d="M34.4744 66.5405L52.5479 57.4935L88.706 39.4108L70.6269 48.4522L34.4744 66.5405Z" fill="white"/>
<path d="M49.1535 112.771L40.9276 108.659V94.5485L49.1535 98.6663V112.771Z" fill="white"/>
<path d="M42.1019 108.071L47.9792 111.009V99.2538L42.1019 96.3165V108.071Z" fill="#EEF0F4"/>
<path opacity="0.15" d="M47.9792 108.659V99.2538L42.1019 96.3165L47.9792 108.659Z" fill="white"/>
<path d="M42.1019 99.8413L47.9792 102.779V103.954L42.1019 101.016V99.8413Z" fill="white"/>
<path opacity="0.15" d="M47.9792 100.429L42.1019 97.4914V96.3165L47.9792 99.2538V100.429Z" fill="white"/>
<path d="M44.4562 96.3165L45.6305 96.9039V109.834L44.4562 109.246V96.3165Z" fill="white"/>
<path d="M59.5603 90.9622L45.5355 83.9462V67.1056L59.5603 74.1216V90.9622Z" fill="white"/>
<path d="M46.939 83.2468L58.1622 88.8585V74.8265L46.939 69.2148V83.2468Z" fill="#EEF0F4"/>
<path opacity="0.15" d="M58.1622 86.0499V74.8265L46.939 69.2148L58.1622 86.0499Z" fill="white"/>
<path d="M46.939 73.4222L58.1622 79.0339V80.4382L46.939 74.8265V73.4222Z" fill="white"/>
<path opacity="0.15" d="M58.1622 76.2308L46.939 70.6136V69.2148L58.1622 74.8265V76.2308Z" fill="white"/>
<path d="M49.7463 69.2148L51.1499 69.9142V85.3505L49.7463 84.6456V69.2148Z" fill="white"/>
<path d="M53.9515 71.3185L55.3551 72.0179V87.4542L53.9515 86.7548V71.3185Z" fill="white"/>
<path d="M146.192 131.089L110.034 149.171V118.651L146.192 100.563V131.089Z" fill="#F7F8FA"/>
<path d="M110.034 122.042L146.192 103.954V85.8708L110.034 103.954V122.042Z" fill="#F7F8FA"/>
<path opacity="0.4" d="M145.057 104.519L111.164 121.477V119.216L145.057 102.258V104.519Z" fill="white"/>
<path d="M112.293 102.823L110.034 103.954V149.171L112.293 148.041V102.823Z" fill="white"/>
<path d="M143.927 87.001L146.192 85.8708V131.089L143.927 132.219V87.001Z" fill="white"/>
<path opacity="0.3" d="M143.927 132.219L112.293 148.041V146.911L143.927 131.089V132.219Z" fill="white"/>
<path opacity="0.29" d="M110.034 103.954V149.171L146.192 131.089V85.8708L110.034 103.954Z" fill="white"/>
<path d="M110.034 149.171L73.8759 131.089V100.563L110.034 118.651V149.171Z" fill="#F7F8FA"/>
<path d="M73.8759 103.954L110.034 122.042V103.954L91.955 76.8239L73.8759 85.8708V103.954Z" fill="#F7F8FA"/>
<path opacity="0.4" d="M110.034 122.042L76.1407 105.089V102.823L110.034 119.781V122.042Z" fill="white"/>
<path d="M76.1407 85.7533H73.8759V130.971L76.1407 132.101V85.7533Z" fill="white"/>
<path d="M107.775 101.693L110.034 103.954V149.171L107.775 148.041V101.693Z" fill="white"/>
<path opacity="0.3" d="M107.775 148.041L76.1407 132.219V131.089L107.775 146.911V148.041Z" fill="white"/>
<path d="M104.615 126.12L93.3194 120.464V139.682L104.615 145.339V126.12Z" fill="white"/>
<path d="M103.486 144.768L94.449 140.248V122.165L103.486 126.686V144.768Z" fill="#C6C9D1"/>
<path opacity="0.3" d="M95.5786 139.682V122.73L94.449 122.165V140.248L103.486 144.768V143.638L95.5786 139.682Z" fill="white"/>
<path opacity="0.3" d="M98.9674 128.946L96.7082 127.816V126.686L98.9674 127.816V128.946Z" fill="white"/>
<path opacity="0.3" d="M102.356 130.641L100.097 129.511V128.381L102.356 129.511V130.641Z" fill="white"/>
<path opacity="0.3" d="M98.9674 133.467L96.7082 132.336V131.206L98.9674 132.336V133.467Z" fill="white"/>
<path opacity="0.3" d="M102.356 135.162L100.097 134.032V132.901L102.356 134.032V135.162Z" fill="white"/>
<path opacity="0.3" d="M98.9674 137.987L96.7082 136.857V135.727L98.9674 136.857V137.987Z" fill="white"/>
<path opacity="0.3" d="M102.356 139.682L100.097 138.552V137.422L102.356 138.552V139.682Z" fill="white"/>
<path d="M91.955 76.8239L73.8759 85.8708V88.1312L91.955 79.0842L110.034 106.219V103.954L91.955 76.8239Z" fill="white"/>
<path opacity="0.6" d="M91.955 76.8239L73.8759 85.8708V131.089L110.034 149.171V103.954L91.955 76.8239Z" fill="white"/>
<path d="M110.034 103.954L91.955 76.8239L128.113 58.7412L146.192 85.8708L110.034 103.954Z" fill="#D4D8DF"/>
<path d="M110.034 103.954L91.955 76.8239L128.113 58.7412L146.192 85.8708L110.034 103.954Z" fill="white" fill-opacity="0.6"/>
<path d="M73.8759 85.8708L91.955 76.8239L128.113 58.7412L110.034 67.7825L73.8759 85.8708Z" fill="#D7D7D7"/>
<path opacity="0.06" d="M73.8759 85.8708L91.955 76.8239L128.113 58.7412L110.034 67.7825L73.8759 85.8708Z" fill="white"/>
<path d="M88.5606 132.101L80.3347 127.989V113.879L88.5606 117.997V132.101Z" fill="white"/>
<path d="M81.509 127.402L87.3863 130.339V118.584L81.509 115.647V127.402Z" fill="#EEF0F4"/>
<path opacity="0.15" d="M87.3863 127.989V118.584L81.509 115.647L87.3863 127.989Z" fill="white"/>
<path d="M81.509 119.172L87.3863 122.109V123.284L81.509 120.347V119.172Z" fill="white"/>
<path opacity="0.15" d="M87.3863 119.759L81.509 116.822V115.647L87.3863 118.584V119.759Z" fill="white"/>
<path d="M83.8633 115.647L85.0376 116.234V129.164L83.8633 128.577V115.647Z" fill="white"/>
<path d="M98.9673 110.293L84.9425 103.277V86.4359L98.9673 93.4519V110.293Z" fill="white"/>
<path d="M86.3461 102.577L97.5638 108.189V94.1569L86.3461 88.5452V102.577Z" fill="#EEF0F4"/>
<path opacity="0.15" d="M97.5638 105.38V94.1569L86.3461 88.5452L97.5638 105.38Z" fill="white"/>
<path d="M86.3461 92.7525L97.5638 98.3642V99.7685L86.3461 94.1569V92.7525Z" fill="white"/>
<path opacity="0.15" d="M97.5638 95.5612L86.3461 89.9439V88.5452L97.5638 94.1569V95.5612Z" fill="white"/>
<path d="M89.1533 88.5452L90.5513 89.2446V104.681L89.1533 103.976V88.5452Z" fill="white"/>
<path d="M93.3585 90.6489L94.7621 91.3482V106.785L93.3585 106.085V90.6489Z" fill="white"/>
</g>
</g>
<defs>
<linearGradient id="paint0_linear_127_4830" x1="81.8143" y1="114.343" x2="47.9714" y2="179.071" gradientUnits="userSpaceOnUse">
<stop stop-color="#E8E8E8" stop-opacity="0"/>
<stop offset="1" stop-color="#A6ADBD"/>
</linearGradient>
<linearGradient id="paint1_linear_127_4830" x1="57.1714" y1="120.257" x2="23.9857" y2="145.886" gradientUnits="userSpaceOnUse">
<stop stop-color="white" stop-opacity="0.05"/>
<stop offset="1" stop-color="white" stop-opacity="0.2"/>
</linearGradient>
<linearGradient id="paint2_linear_127_4830" x1="96.6" y1="140.629" x2="63.4143" y2="166.257" gradientUnits="userSpaceOnUse">
<stop stop-color="white" stop-opacity="0.05"/>
<stop offset="1" stop-color="white" stop-opacity="0.2"/>
</linearGradient>
<linearGradient id="paint3_linear_127_4830" x1="143.031" y1="98.9948" x2="137.5" y2="148.381" gradientUnits="userSpaceOnUse">
<stop stop-color="white" stop-opacity="0"/>
<stop offset="1" stop-color="#D8DBE0"/>
</linearGradient>
<clipPath id="clip0_127_4830">
<rect width="150.135" height="128.8" fill="white" transform="translate(-3.94287 20.3714)"/>
</clipPath>
</defs>
</svg>
