<svg width="24" height="24" viewBox="0 0 24 24" fill="none" xmlns="http://www.w3.org/2000/svg">
<path d="M17.2792 12.0209C17.2708 10.5156 17.9625 9.37949 19.3625 8.54277C18.5792 7.43945 17.3958 6.83242 15.8333 6.71348C14.3542 6.59863 12.7375 7.5625 12.1458 7.5625C11.5208 7.5625 10.0875 6.75449 8.96251 6.75449C6.63751 6.79141 4.16667 8.57969 4.16667 12.2178C4.16667 13.2924 4.36667 14.4025 4.76667 15.5482C5.30001 17.0535 7.22501 20.7449 9.23334 20.6834C10.2833 20.6588 11.025 19.9492 12.3917 19.9492C13.7167 19.9492 14.4042 20.6834 15.575 20.6834C17.6 20.6547 19.3417 17.2996 19.85 15.7902C17.1333 14.5311 17.2792 12.0988 17.2792 12.0209ZM14.9208 5.28613C16.0583 3.95723 15.9542 2.74727 15.9208 2.3125C14.9167 2.36992 13.7542 2.98516 13.0917 3.74395C12.3625 4.55605 11.9333 5.56094 12.025 6.69297C13.1125 6.775 14.1042 6.22539 14.9208 5.28613Z" fill="black"/>
</svg>
