<svg width="24" height="24" viewBox="0 0 24 24" fill="none" xmlns="http://www.w3.org/2000/svg">
<g clip-path="url(#clip0_423_17349)">
<path d="M5.51562 5.64258L8.05703 8.18399C8.56508 7.65728 9.17346 7.23764 9.84629 6.94984C10.5191 6.66203 11.2428 6.51187 11.9746 6.50823C12.7064 6.50459 13.4315 6.64754 14.1071 6.92864C14.7828 7.20974 15.3953 7.6233 15.9086 8.14493L18.4477 5.60235C17.6007 4.74782 16.5922 4.07025 15.4809 3.60903C14.3697 3.14782 13.1778 2.91218 11.9746 2.91581C10.7715 2.91945 9.58104 3.16229 8.47259 3.63021C7.36413 4.09813 6.35979 4.78178 5.51797 5.64141L5.51562 5.64258Z" fill="#F0432C"/>
<path d="M5.54883 18.3969L8.08789 15.8578C7.57999 15.346 7.17804 14.7391 6.90506 14.0717C6.63208 13.4043 6.49344 12.6897 6.49707 11.9687C6.50069 11.2476 6.64653 10.5344 6.92621 9.86982C7.20589 9.20524 7.61393 8.60236 8.12696 8.0957L5.58633 5.55469C4.73975 6.39507 4.06713 7.39409 3.60693 8.49462C3.14674 9.59515 2.908 10.7756 2.90438 11.9685C2.90075 13.1613 3.1323 14.3432 3.58579 15.4465C4.03928 16.5498 4.70581 17.5529 5.54727 18.3984L5.54883 18.3969Z" fill="#FFBF00"/>
<path d="M13.7961 13.7906V13.8281H13.8336L13.7961 13.7906Z" fill="#24AA49"/>
<path d="M11.9805 21.0707C13.1749 21.0722 14.3579 20.8373 15.4611 20.3794C16.5643 19.9215 17.5659 19.2497 18.4082 18.4027L15.8672 15.8609C15.3579 16.3733 14.7523 16.7799 14.0852 17.0573C13.4182 17.3348 12.7029 17.4776 11.9805 17.4776C11.258 17.4776 10.5427 17.3348 9.8757 17.0573C9.20867 16.7799 8.60307 16.3733 8.09375 15.8609L5.55469 18.4C6.39651 19.2472 7.39773 19.9194 8.50059 20.3777C9.60345 20.8361 10.7861 21.0716 11.9805 21.0707Z" fill="#24AA49"/>
<path d="M20.9203 10.216L13.8336 10.2258V13.8281H17.1867C16.9092 14.6073 16.4593 15.3138 15.8707 15.8949L18.4117 18.4363C19.4756 17.3795 20.2615 16.0758 20.6992 14.6414C21.1369 13.2071 21.2129 11.6868 20.9203 10.216Z" fill="#3384FC"/>
</g>
<defs>
<clipPath id="clip0_423_17349">
<rect width="20" height="20" fill="white" transform="translate(2 2)"/>
</clipPath>
</defs>
</svg>
