<svg width="24" height="24" viewBox="0 0 24 24" fill="none" xmlns="http://www.w3.org/2000/svg">
<path fill-rule="evenodd" clip-rule="evenodd" d="M5 6H19C19.092 6 19.1811 6.01243 19.2658 6.0357L12.1615 11.2704C11.7927 11.5422 11.2863 11.5286 10.9326 11.2373L4.64966 6.06309C4.75869 6.0223 4.87674 6 5 6ZM4 8.11898V17C4 17.5523 4.44772 18 5 18H19C19.5523 18 20 17.5523 20 17V7.97899L13.3479 12.8805C12.2414 13.6959 10.7222 13.6549 9.6612 12.7811L4 8.11898ZM2 7C2 5.34315 3.34315 4 5 4H19C20.6569 4 22 5.34315 22 7V17C22 18.6569 20.6569 20 19 20H5C3.34315 20 2 18.6569 2 17V7Z" fill="#1D6CD6" fill-opacity="0.4"/>
<path fill-rule="evenodd" clip-rule="evenodd" d="M5 6H19C19.092 6 19.1811 6.01243 19.2658 6.0357L12.1615 11.2704C11.7927 11.5422 11.2863 11.5286 10.9326 11.2373L4.64966 6.06309C4.75869 6.0223 4.87674 6 5 6ZM4 8.11898V17C4 17.5523 4.44772 18 5 18H19C19.5523 18 20 17.5523 20 17V7.97899L13.3479 12.8805C12.2414 13.6959 10.7222 13.6549 9.6612 12.7811L4 8.11898ZM2 7C2 5.34315 3.34315 4 5 4H19C20.6569 4 22 5.34315 22 7V17C22 18.6569 20.6569 20 19 20H5C3.34315 20 2 18.6569 2 17V7Z" fill="black" fill-opacity="0.4"/>
</svg>
