<svg width="24" height="24" viewBox="0 0 24 24" fill="none" xmlns="http://www.w3.org/2000/svg">
<path fill-rule="evenodd" clip-rule="evenodd" d="M8 5H8.5H15.5H16V5.5V8V8.23241L18.7774 10.084L19 10.2324V10.5V18H21V19H3V18H5V8.5V7.6169L5.75725 8.07125L8 9.4169V5.5V5ZM15 6V8H10V9H15V11H12.5V12H15V13H12.5V14H15V15H12.5V16H15V18H11V11.5V11.2169L10.7572 11.0713L9 10.0169V6H15ZM16 16V18H18V10.7676L16 9.43426V11V12V13V14V15V16ZM10 15V14H7.5V13H10V11.7831L6 9.3831V18H10V16H7.5V15H10Z" fill="#1D6CD6" fill-opacity="0.32"/>
<path fill-rule="evenodd" clip-rule="evenodd" d="M8 5H8.5H15.5H16V5.5V8V8.23241L18.7774 10.084L19 10.2324V10.5V18H21V19H3V18H5V8.5V7.6169L5.75725 8.07125L8 9.4169V5.5V5ZM15 6V8H10V9H15V11H12.5V12H15V13H12.5V14H15V15H12.5V16H15V18H11V11.5V11.2169L10.7572 11.0713L9 10.0169V6H15ZM16 16V18H18V10.7676L16 9.43426V11V12V13V14V15V16ZM10 15V14H7.5V13H10V11.7831L6 9.3831V18H10V16H7.5V15H10Z" fill="black" fill-opacity="0.32"/>
</svg>
