<svg width="24" height="24" viewBox="0 0 24 24" fill="none" xmlns="http://www.w3.org/2000/svg">
<path fill-rule="evenodd" clip-rule="evenodd" d="M18 11.5C18 15.0899 15.0899 18 11.5 18C7.91015 18 5 15.0899 5 11.5C5 7.91015 7.91015 5 11.5 5C15.0899 5 18 7.91015 18 11.5ZM19 11.5C19 15.6421 15.6421 19 11.5 19C7.35786 19 4 15.6421 4 11.5C4 7.35786 7.35786 4 11.5 4C15.6421 4 19 7.35786 19 11.5ZM11 7V12.5V13H11.5H15V12H12V7H11Z" fill="#1D6CD6" fill-opacity="0.32"/>
<path fill-rule="evenodd" clip-rule="evenodd" d="M18 11.5C18 15.0899 15.0899 18 11.5 18C7.91015 18 5 15.0899 5 11.5C5 7.91015 7.91015 5 11.5 5C15.0899 5 18 7.91015 18 11.5ZM19 11.5C19 15.6421 15.6421 19 11.5 19C7.35786 19 4 15.6421 4 11.5C4 7.35786 7.35786 4 11.5 4C15.6421 4 19 7.35786 19 11.5ZM11 7V12.5V13H11.5H15V12H12V7H11Z" fill="black" fill-opacity="0.32"/>
</svg>
