<svg width="24" height="24" viewBox="0 0 24 24" fill="none" xmlns="http://www.w3.org/2000/svg">
<path d="M17.5 10C17.5 11.6337 16.624 13.4759 15.4949 15.1527C14.3769 16.813 13.064 18.2343 12.2972 19.0113C12.1287 19.1821 11.8713 19.1821 11.7028 19.0113C10.936 18.2343 9.6231 16.813 8.50512 15.1527C7.376 13.4759 6.5 11.6337 6.5 10C6.5 6.96243 8.96243 4.5 12 4.5C15.0376 4.5 17.5 6.96243 17.5 10Z" stroke="#1D6CD6" stroke-opacity="0.32"/>
<path d="M17.5 10C17.5 11.6337 16.624 13.4759 15.4949 15.1527C14.3769 16.813 13.064 18.2343 12.2972 19.0113C12.1287 19.1821 11.8713 19.1821 11.7028 19.0113C10.936 18.2343 9.6231 16.813 8.50512 15.1527C7.376 13.4759 6.5 11.6337 6.5 10C6.5 6.96243 8.96243 4.5 12 4.5C15.0376 4.5 17.5 6.96243 17.5 10Z" stroke="black" stroke-opacity="0.32"/>
<circle cx="12" cy="10" r="2.5" stroke="#1D6CD6" stroke-opacity="0.32"/>
<circle cx="12" cy="10" r="2.5" stroke="black" stroke-opacity="0.32"/>
</svg>
