<svg width="24" height="24" viewBox="0 0 24 24" fill="none" xmlns="http://www.w3.org/2000/svg">
<path fill-rule="evenodd" clip-rule="evenodd" d="M15 11.5C15 13.9853 12.9853 16 10.5 16C8.01472 16 6 13.9853 6 11.5C6 9.01472 8.01472 7 10.5 7C12.9853 7 15 9.01472 15 11.5ZM14.0195 15.7266C13.0658 16.5217 11.8387 17 10.5 17C7.46243 17 5 14.5376 5 11.5C5 8.46243 7.46243 6 10.5 6C13.5376 6 16 8.46243 16 11.5C16 12.8387 15.5217 14.0658 14.7266 15.0195L17.8536 18.1464L17.1464 18.8536L14.0195 15.7266Z" fill="#1D6CD6" fill-opacity="0.32"/>
<path fill-rule="evenodd" clip-rule="evenodd" d="M15 11.5C15 13.9853 12.9853 16 10.5 16C8.01472 16 6 13.9853 6 11.5C6 9.01472 8.01472 7 10.5 7C12.9853 7 15 9.01472 15 11.5ZM14.0195 15.7266C13.0658 16.5217 11.8387 17 10.5 17C7.46243 17 5 14.5376 5 11.5C5 8.46243 7.46243 6 10.5 6C13.5376 6 16 8.46243 16 11.5C16 12.8387 15.5217 14.0658 14.7266 15.0195L17.8536 18.1464L17.1464 18.8536L14.0195 15.7266Z" fill="black" fill-opacity="0.32"/>
</svg>
