<svg width="24" height="24" viewBox="0 0 24 24" fill="none" xmlns="http://www.w3.org/2000/svg">
<mask id="path-1-inside-1_74_3644" fill="white">
<path fill-rule="evenodd" clip-rule="evenodd" d="M12 5H7V20L12 17L17 20V5H12Z"/>
</mask>
<path d="M7 5V4H6V5H7ZM7 20H6V21.7662L7.5145 20.8575L7 20ZM12 17L12.5145 16.1425L12 15.8338L11.4855 16.1425L12 17ZM17 20L16.4855 20.8575L18 21.7662V20H17ZM17 5H18V4H17V5ZM7 6H12V4H7V6ZM8 20V5H6V20H8ZM11.4855 16.1425L6.4855 19.1425L7.5145 20.8575L12.5145 17.8575L11.4855 16.1425ZM11.4855 17.8575L16.4855 20.8575L17.5145 19.1425L12.5145 16.1425L11.4855 17.8575ZM18 20V5H16V20H18ZM17 4H12V6H17V4Z" fill="#1D6CD6" fill-opacity="0.32" mask="url(#path-1-inside-1_74_3644)"/>
<path d="M7 5V4H6V5H7ZM7 20H6V21.7662L7.5145 20.8575L7 20ZM12 17L12.5145 16.1425L12 15.8338L11.4855 16.1425L12 17ZM17 20L16.4855 20.8575L18 21.7662V20H17ZM17 5H18V4H17V5ZM7 6H12V4H7V6ZM8 20V5H6V20H8ZM11.4855 16.1425L6.4855 19.1425L7.5145 20.8575L12.5145 17.8575L11.4855 16.1425ZM11.4855 17.8575L16.4855 20.8575L17.5145 19.1425L12.5145 16.1425L11.4855 17.8575ZM18 20V5H16V20H18ZM17 4H12V6H17V4Z" fill="black" fill-opacity="0.32" mask="url(#path-1-inside-1_74_3644)"/>
</svg>
