<svg width="24" height="24" viewBox="0 0 24 24" fill="none" xmlns="http://www.w3.org/2000/svg">
<mask id="path-1-inside-1_235_10532" fill="white">
<path fill-rule="evenodd" clip-rule="evenodd" d="M12 3H6V21L12 17L18 21V3H12Z"/>
</mask>
<path d="M6 3V1.3H4.3V3H6ZM6 21H4.3V24.1765L6.94299 22.4145L6 21ZM12 17L12.943 15.5855L12 14.9569L11.057 15.5855L12 17ZM18 21L17.057 22.4145L19.7 24.1765V21H18ZM18 3H19.7V1.3H18V3ZM6 4.7H12V1.3H6V4.7ZM7.7 21V3H4.3V21H7.7ZM11.057 15.5855L5.05701 19.5855L6.94299 22.4145L12.943 18.4145L11.057 15.5855ZM11.057 18.4145L17.057 22.4145L18.943 19.5855L12.943 15.5855L11.057 18.4145ZM19.7 21V3H16.3V21H19.7ZM18 1.3H12V4.7H18V1.3Z" fill="#1D6CD6" fill-opacity="0.12" mask="url(#path-1-inside-1_235_10532)"/>
<path d="M6 3V1.3H4.3V3H6ZM6 21H4.3V24.1765L6.94299 22.4145L6 21ZM12 17L12.943 15.5855L12 14.9569L11.057 15.5855L12 17ZM18 21L17.057 22.4145L19.7 24.1765V21H18ZM18 3H19.7V1.3H18V3ZM6 4.7H12V1.3H6V4.7ZM7.7 21V3H4.3V21H7.7ZM11.057 15.5855L5.05701 19.5855L6.94299 22.4145L12.943 18.4145L11.057 15.5855ZM11.057 18.4145L17.057 22.4145L18.943 19.5855L12.943 15.5855L11.057 18.4145ZM19.7 21V3H16.3V21H19.7ZM18 1.3H12V4.7H18V1.3Z" fill="black" fill-opacity="0.24" mask="url(#path-1-inside-1_235_10532)"/>
<path d="M9 15.3V6H15V15.3L12 13.3L9 15.3Z" fill="#1D6CD6" fill-opacity="0.12"/>
<path d="M9 15.3V6H15V15.3L12 13.3L9 15.3Z" fill="black" fill-opacity="0.24"/>
</svg>
