<svg width="24" height="24" viewBox="0 0 24 24" fill="none" xmlns="http://www.w3.org/2000/svg">
<rect x="11" y="3" width="2" height="18" fill="#1D6CD6" fill-opacity="0.12"/>
<rect x="11" y="3" width="2" height="18" fill="black" fill-opacity="0.24"/>
<path d="M10 6H4C3.44772 6 3 6.44772 3 7V9C3 9.55228 3.44772 10 4 10H10" stroke="#1D6CD6" stroke-opacity="0.12" stroke-width="1.7"/>
<path d="M10 6H4C3.44772 6 3 6.44772 3 7V9C3 9.55228 3.44772 10 4 10H10" stroke="black" stroke-opacity="0.24" stroke-width="1.7"/>
<path d="M14 6H20C20.5523 6 21 6.44772 21 7V9C21 9.55228 20.5523 10 20 10H14" stroke="#1D6CD6" stroke-opacity="0.12" stroke-width="1.7"/>
<path d="M14 6H20C20.5523 6 21 6.44772 21 7V9C21 9.55228 20.5523 10 20 10H14" stroke="black" stroke-opacity="0.24" stroke-width="1.7"/>
<path d="M10 13H6C5.44772 13 5 13.4477 5 14V16C5 16.5523 5.44772 17 6 17H10" stroke="#1D6CD6" stroke-opacity="0.12" stroke-width="1.7"/>
<path d="M10 13H6C5.44772 13 5 13.4477 5 14V16C5 16.5523 5.44772 17 6 17H10" stroke="black" stroke-opacity="0.24" stroke-width="1.7"/>
<path d="M14 13H18C18.5523 13 19 13.4477 19 14V16C19 16.5523 18.5523 17 18 17H14" stroke="#1D6CD6" stroke-opacity="0.12" stroke-width="1.7"/>
<path d="M14 13H18C18.5523 13 19 13.4477 19 14V16C19 16.5523 18.5523 17 18 17H14" stroke="black" stroke-opacity="0.24" stroke-width="1.7"/>
</svg>
