<svg width="24" height="24" viewBox="0 0 24 24" fill="none" xmlns="http://www.w3.org/2000/svg">
<path fill-rule="evenodd" clip-rule="evenodd" d="M14.8 7.5C14.8 9.0464 13.5464 10.3 12 10.3C10.4536 10.3 9.2 9.0464 9.2 7.5C9.2 5.9536 10.4536 4.7 12 4.7C13.5464 4.7 14.8 5.9536 14.8 7.5ZM16.5 7.5C16.5 9.98528 14.4853 12 12 12C9.51472 12 7.5 9.98528 7.5 7.5C7.5 5.01472 9.51472 3 12 3C14.4853 3 16.5 5.01472 16.5 7.5ZM5.74749 19.3C5.8198 18.3604 6.00038 17.4931 6.44782 16.766C7.03769 15.8074 8.36855 14.7 12 14.7C15.6315 14.7 16.9623 15.8074 17.5522 16.766C17.9996 17.4931 18.1802 18.3604 18.2525 19.3H5.74749ZM12 13C18.6163 13 19.7607 16.4199 19.9586 19.3C20 19.9024 20 20.4811 20 21H18.3H5.7H4C4 20.4811 4 19.9023 4.0414 19.3C4.23935 16.4199 5.38375 13 12 13Z" fill="#1D6CD6" fill-opacity="0.12"/>
<path fill-rule="evenodd" clip-rule="evenodd" d="M14.8 7.5C14.8 9.0464 13.5464 10.3 12 10.3C10.4536 10.3 9.2 9.0464 9.2 7.5C9.2 5.9536 10.4536 4.7 12 4.7C13.5464 4.7 14.8 5.9536 14.8 7.5ZM16.5 7.5C16.5 9.98528 14.4853 12 12 12C9.51472 12 7.5 9.98528 7.5 7.5C7.5 5.01472 9.51472 3 12 3C14.4853 3 16.5 5.01472 16.5 7.5ZM5.74749 19.3C5.8198 18.3604 6.00038 17.4931 6.44782 16.766C7.03769 15.8074 8.36855 14.7 12 14.7C15.6315 14.7 16.9623 15.8074 17.5522 16.766C17.9996 17.4931 18.1802 18.3604 18.2525 19.3H5.74749ZM12 13C18.6163 13 19.7607 16.4199 19.9586 19.3C20 19.9024 20 20.4811 20 21H18.3H5.7H4C4 20.4811 4 19.9023 4.0414 19.3C4.23935 16.4199 5.38375 13 12 13Z" fill="black" fill-opacity="0.24"/>
</svg>
