<svg width="24" height="24" viewBox="0 0 24 24" fill="none" xmlns="http://www.w3.org/2000/svg">
<path d="M16.6179 3.96559L20.0821 5.96559C20.1777 6.02081 20.2105 6.14313 20.1553 6.23879L12.8624 18.8705C12.8358 18.9164 12.7922 18.9499 12.7409 18.9636L10.0089 19.6957C9.90218 19.7243 9.79251 19.661 9.76392 19.5543L9.03187 16.8222C9.01814 16.771 9.02533 16.7164 9.05185 16.6705L16.3447 4.03879C16.4 3.94313 16.5223 3.91036 16.6179 3.96559Z" stroke="#1D6CD6" stroke-opacity="0.12" stroke-width="1.6"/>
<path d="M16.6179 3.96559L20.0821 5.96559C20.1777 6.02081 20.2105 6.14313 20.1553 6.23879L12.8624 18.8705C12.8358 18.9164 12.7922 18.9499 12.7409 18.9636L10.0089 19.6957C9.90218 19.7243 9.79251 19.661 9.76392 19.5543L9.03187 16.8222C9.01814 16.771 9.02533 16.7164 9.05185 16.6705L16.3447 4.03879C16.4 3.94313 16.5223 3.91036 16.6179 3.96559Z" stroke="black" stroke-opacity="0.24" stroke-width="1.6"/>
<path fill-rule="evenodd" clip-rule="evenodd" d="M13.0216 5.3287L11.1557 3.83601C10.48 3.29549 9.51997 3.29549 8.84432 3.83601L4.84432 7.036C4.40547 7.38708 4.15 7.91861 4.15 8.48061V17C4.15 18.0217 4.97828 18.85 6 18.85H7.16573L6.80539 17.15H6C5.91716 17.15 5.85 17.0828 5.85 17V8.48061C5.85 8.43504 5.87072 8.39194 5.9063 8.36348L9.9063 5.16349C9.96108 5.11966 10.0389 5.11966 10.0937 5.16349L12.1618 6.81792L13.0216 5.3287Z" fill="#1D6CD6" fill-opacity="0.12"/>
<path fill-rule="evenodd" clip-rule="evenodd" d="M13.0216 5.3287L11.1557 3.83601C10.48 3.29549 9.51997 3.29549 8.84432 3.83601L4.84432 7.036C4.40547 7.38708 4.15 7.91861 4.15 8.48061V17C4.15 18.0217 4.97828 18.85 6 18.85H7.16573L6.80539 17.15H6C5.91716 17.15 5.85 17.0828 5.85 17V8.48061C5.85 8.43504 5.87072 8.39194 5.9063 8.36348L9.9063 5.16349C9.96108 5.11966 10.0389 5.11966 10.0937 5.16349L12.1618 6.81792L13.0216 5.3287Z" fill="black" fill-opacity="0.24"/>
<circle cx="10" cy="9" r="1" fill="#1D6CD6" fill-opacity="0.12"/>
<circle cx="10" cy="9" r="1" fill="black" fill-opacity="0.24"/>
</svg>
