<svg width="24" height="24" viewBox="0 0 24 24" fill="none" xmlns="http://www.w3.org/2000/svg">
<path d="M16.6179 3.96559L20.0821 5.96559C20.1777 6.02081 20.2105 6.14313 20.1553 6.23879L12.8624 18.8705C12.8358 18.9164 12.7922 18.9499 12.7409 18.9636L10.0089 19.6957C9.90218 19.7243 9.79251 19.661 9.76392 19.5543L9.03187 16.8222C9.01814 16.771 9.02533 16.7164 9.05185 16.6705L16.3447 4.03879C16.4 3.94313 16.5223 3.91036 16.6179 3.96559Z" stroke="#1D6CD6" stroke-opacity="0.12" stroke-width="1.6"/>
<path d="M16.6179 3.96559L20.0821 5.96559C20.1777 6.02081 20.2105 6.14313 20.1553 6.23879L12.8624 18.8705C12.8358 18.9164 12.7922 18.9499 12.7409 18.9636L10.0089 19.6957C9.90218 19.7243 9.79251 19.661 9.76392 19.5543L9.03187 16.8222C9.01814 16.771 9.02533 16.7164 9.05185 16.6705L16.3447 4.03879C16.4 3.94313 16.5223 3.91036 16.6179 3.96559Z" stroke="black" stroke-opacity="0.24" stroke-width="1.6"/>
<path fill-rule="evenodd" clip-rule="evenodd" d="M13.2113 5H3V7H12.0566L13.2113 5ZM10.3246 10H3V12H9.16987L10.3246 10ZM7.43782 15H3V17H6.7736L6.72341 16.7632C6.67117 16.5168 6.71558 16.251 6.84705 16.0232L7.43782 15Z" fill="#1D6CD6" fill-opacity="0.12"/>
<path fill-rule="evenodd" clip-rule="evenodd" d="M13.2113 5H3V7H12.0566L13.2113 5ZM10.3246 10H3V12H9.16987L10.3246 10ZM7.43782 15H3V17H6.7736L6.72341 16.7632C6.67117 16.5168 6.71558 16.251 6.84705 16.0232L7.43782 15Z" fill="black" fill-opacity="0.24"/>
</svg>
