<svg width="24" height="24" viewBox="0 0 24 24" fill="none" xmlns="http://www.w3.org/2000/svg">
<path fill-rule="evenodd" clip-rule="evenodd" d="M7.88112 7.12096C6.53492 8.46716 5.86143 10.2295 5.86016 11.995L4.16016 11.9937C4.16175 9.7962 5.00154 7.59637 6.67904 5.91888C10.0375 2.56037 15.4828 2.56037 18.8413 5.91888C22.1998 9.27738 22.1998 14.7226 18.8413 18.0811C15.4828 21.4396 10.0375 21.4396 6.67904 18.0811L7.88112 16.879C10.5757 19.5736 14.9446 19.5736 17.6392 16.879C20.3338 14.1844 20.3338 9.81557 17.6392 7.12096C14.9446 4.42634 10.5757 4.42634 7.88112 7.12096ZM4.82843 12H2L3.58579 13.5858L4 14L5 15L6 14L6.41421 13.5858L8 12H5.17157H4.82843ZM11.7 6.99999V12V12.3314L11.9343 12.5657L14.4343 15.0657L15.5657 13.9343L13.3 11.6686V6.99999H11.7Z" fill="#1D6CD6" fill-opacity="0.12"/>
<path fill-rule="evenodd" clip-rule="evenodd" d="M7.88112 7.12096C6.53492 8.46716 5.86143 10.2295 5.86016 11.995L4.16016 11.9937C4.16175 9.7962 5.00154 7.59637 6.67904 5.91888C10.0375 2.56037 15.4828 2.56037 18.8413 5.91888C22.1998 9.27738 22.1998 14.7226 18.8413 18.0811C15.4828 21.4396 10.0375 21.4396 6.67904 18.0811L7.88112 16.879C10.5757 19.5736 14.9446 19.5736 17.6392 16.879C20.3338 14.1844 20.3338 9.81557 17.6392 7.12096C14.9446 4.42634 10.5757 4.42634 7.88112 7.12096ZM4.82843 12H2L3.58579 13.5858L4 14L5 15L6 14L6.41421 13.5858L8 12H5.17157H4.82843ZM11.7 6.99999V12V12.3314L11.9343 12.5657L14.4343 15.0657L15.5657 13.9343L13.3 11.6686V6.99999H11.7Z" fill="black" fill-opacity="0.24"/>
</svg>
