<svg width="24" height="24" viewBox="0 0 24 24" fill="none" xmlns="http://www.w3.org/2000/svg">
<path fill-rule="evenodd" clip-rule="evenodd" d="M5.55742 14.577L2 16L12 20L22 16L18.4426 14.577L16.1539 15.4925L17.4226 16L12 18.169L6.57739 16L7.84611 15.4925L5.55742 14.577Z" fill="#1D6CD6" fill-opacity="0.12"/>
<path fill-rule="evenodd" clip-rule="evenodd" d="M5.55742 14.577L2 16L12 20L22 16L18.4426 14.577L16.1539 15.4925L17.4226 16L12 18.169L6.57739 16L7.84611 15.4925L5.55742 14.577Z" fill="black" fill-opacity="0.24"/>
<path fill-rule="evenodd" clip-rule="evenodd" d="M5.74998 10.577L2 12.077L12 16.077L22 12.077L18.25 10.577L15.9613 11.4925L17.4226 12.077L12 14.2461L6.57739 12.077L8.03868 11.4925L5.74998 10.577Z" fill="#1D6CD6" fill-opacity="0.12"/>
<path fill-rule="evenodd" clip-rule="evenodd" d="M5.74998 10.577L2 12.077L12 16.077L22 12.077L18.25 10.577L15.9613 11.4925L17.4226 12.077L12 14.2461L6.57739 12.077L8.03868 11.4925L5.74998 10.577Z" fill="black" fill-opacity="0.24"/>
<path fill-rule="evenodd" clip-rule="evenodd" d="M2 8L12 12L22 8L12 4L2 8ZM6.57739 8L12 10.169L17.4226 8L12 5.83096L6.57739 8Z" fill="#1D6CD6" fill-opacity="0.12"/>
<path fill-rule="evenodd" clip-rule="evenodd" d="M2 8L12 12L22 8L12 4L2 8ZM6.57739 8L12 10.169L17.4226 8L12 5.83096L6.57739 8Z" fill="black" fill-opacity="0.24"/>
</svg>
