<svg width="24" height="24" viewBox="0 0 24 24" fill="none" xmlns="http://www.w3.org/2000/svg">
<path fill-rule="evenodd" clip-rule="evenodd" d="M9 7H5.7H4V8.7V18.3V20H5.7H15.3H17V18.3V15H15.3V18.3H5.7V8.7H9V7Z" fill="#1D6CD6" fill-opacity="0.12"/>
<path fill-rule="evenodd" clip-rule="evenodd" d="M9 7H5.7H4V8.7V18.3V20H5.7H15.3H17V18.3V15H15.3V18.3H5.7V8.7H9V7Z" fill="black" fill-opacity="0.24"/>
<path fill-rule="evenodd" clip-rule="evenodd" d="M16.9479 5.84999H11V4.14999H19H19.85V4.99999V13H18.15V7.05207L10.101 15.101L8.89896 13.899L16.9479 5.84999Z" fill="#1D6CD6" fill-opacity="0.12"/>
<path fill-rule="evenodd" clip-rule="evenodd" d="M16.9479 5.84999H11V4.14999H19H19.85V4.99999V13H18.15V7.05207L10.101 15.101L8.89896 13.899L16.9479 5.84999Z" fill="black" fill-opacity="0.24"/>
</svg>
