<svg width="24" height="24" viewBox="0 0 24 24" fill="none" xmlns="http://www.w3.org/2000/svg">
<path d="M18.15 10C18.15 12.1488 16.6128 14.437 14.8786 16.295C14.0342 17.1997 13.1869 17.9565 12.5496 18.4876C12.3406 18.6618 12.1548 18.8112 12 18.9329C11.8452 18.8112 11.6594 18.6618 11.4504 18.4876C10.8131 17.9565 9.96578 17.1997 9.1214 16.295C7.38721 14.437 5.85 12.1488 5.85 10C5.85 6.60345 8.60345 3.85 12 3.85C15.3966 3.85 18.15 6.60345 18.15 10Z" stroke="#1D6CD6" stroke-opacity="0.12" stroke-width="1.7"/>
<path d="M18.15 10C18.15 12.1488 16.6128 14.437 14.8786 16.295C14.0342 17.1997 13.1869 17.9565 12.5496 18.4876C12.3406 18.6618 12.1548 18.8112 12 18.9329C11.8452 18.8112 11.6594 18.6618 11.4504 18.4876C10.8131 17.9565 9.96578 17.1997 9.1214 16.295C7.38721 14.437 5.85 12.1488 5.85 10C5.85 6.60345 8.60345 3.85 12 3.85C15.3966 3.85 18.15 6.60345 18.15 10Z" stroke="black" stroke-opacity="0.24" stroke-width="1.7"/>
<circle cx="12" cy="10" r="2.15" stroke="#1D6CD6" stroke-opacity="0.12" stroke-width="1.7"/>
<circle cx="12" cy="10" r="2.15" stroke="black" stroke-opacity="0.24" stroke-width="1.7"/>
</svg>
