<svg width="24" height="24" viewBox="0 0 24 24" fill="none" xmlns="http://www.w3.org/2000/svg">
<path fill-rule="evenodd" clip-rule="evenodd" d="M14.7 9.3V11V18.3H18.3V15.35H17V13.65H18.3V11.35H17V9.65H18.3V5.7H16.85V7H15.15V5.7H12.85V7H11.15V5.7H8.85V7H7.15V5.7H5.7V9.3H13H14.7ZM4 5.7V4H5.7H18.3H20V5.7V18.3V20H18.3H14.7H13V18.3V12.7V11H11.3H5.7H4V9.3V5.7Z" fill="#1D6CD6" fill-opacity="0.12"/>
<path fill-rule="evenodd" clip-rule="evenodd" d="M14.7 9.3V11V18.3H18.3V15.35H17V13.65H18.3V11.35H17V9.65H18.3V5.7H16.85V7H15.15V5.7H12.85V7H11.15V5.7H8.85V7H7.15V5.7H5.7V9.3H13H14.7ZM4 5.7V4H5.7H18.3H20V5.7V18.3V20H18.3H14.7H13V18.3V12.7V11H11.3H5.7H4V9.3V5.7Z" fill="black" fill-opacity="0.24"/>
</svg>
