<svg width="24" height="24" viewBox="0 0 24 24" fill="none" xmlns="http://www.w3.org/2000/svg">
<path fill-rule="evenodd" clip-rule="evenodd" d="M7 15L15.5 9L5 3V20L7 18.5V15ZM6.7 12.6693L12.5 9L6.7 5.92941V12.6693Z" fill="#1D6CD6" fill-opacity="0.12"/>
<path fill-rule="evenodd" clip-rule="evenodd" d="M7 15L15.5 9L5 3V20L7 18.5V15ZM6.7 12.6693L12.5 9L6.7 5.92941V12.6693Z" fill="black" fill-opacity="0.24"/>
<path fill-rule="evenodd" clip-rule="evenodd" d="M13 14.5L20.5 9L11 3V20L13 18.5V14.5ZM11 14L17.5 9L11 5V14Z" fill="#1D6CD6" fill-opacity="0.12"/>
<path fill-rule="evenodd" clip-rule="evenodd" d="M13 14.5L20.5 9L11 3V20L13 18.5V14.5ZM11 14L17.5 9L11 5V14Z" fill="black" fill-opacity="0.24"/>
</svg>
