<svg width="24" height="24" viewBox="0 0 24 24" fill="none" xmlns="http://www.w3.org/2000/svg">
<path fill-rule="evenodd" clip-rule="evenodd" d="M12.7 14.2554C12.9374 14.2224 13.1619 14.1691 13.3493 14.0887C13.5256 14.0132 13.6343 13.9283 13.6975 13.847C13.7529 13.7758 13.8 13.6745 13.8 13.5C13.8 13.4374 13.7798 13.3627 13.6538 13.2547C13.515 13.1357 13.2963 13.0237 13.023 12.93C12.9151 12.893 12.8059 12.8613 12.7 12.8342V14.2554ZM12.7 11.3991C12.9278 11.4446 13.2001 11.5107 13.477 11.6057C13.8287 11.7263 14.235 11.9089 14.5649 12.1917C14.9077 12.4855 15.2 12.9198 15.2 13.5C15.2 13.9683 15.0596 14.376 14.8025 14.7065C14.5532 15.0271 14.2244 15.2368 13.9007 15.3755C13.5164 15.5403 13.0922 15.6246 12.7 15.6655V17H11.3V15.6525C10.8586 15.6011 10.3843 15.5157 9.98772 15.4364C9.66682 15.3722 9.37863 15.3082 9.17073 15.2602C9.06663 15.2362 8.9823 15.2161 8.92365 15.2019L8.85556 15.1854L8.83727 15.1809L8.83231 15.1796L8.83091 15.1793L8.83048 15.1792L8.83033 15.1791C8.83027 15.1791 8.83023 15.1791 9 14.5L9.16972 13.8209L9.16983 13.8209L9.1706 13.8211L9.17427 13.822L9.18986 13.8259L9.25214 13.841C9.30676 13.8542 9.3865 13.8732 9.48553 13.8961C9.68387 13.9418 9.95819 14.0028 10.2623 14.0636C10.6083 14.1328 10.9723 14.1975 11.3 14.2416V12.6009C11.0722 12.5554 10.7999 12.4893 10.523 12.3943C10.1713 12.2737 9.76501 12.0911 9.43507 11.8083C9.09231 11.5145 8.8 11.0802 8.8 10.5C8.8 10.0317 8.94039 9.62397 9.19746 9.29346C9.44677 8.97291 9.7756 8.76317 10.0993 8.62446C10.4836 8.45972 10.9078 8.37537 11.3 8.33455V7H12.7V8.34747C13.1414 8.3989 13.6157 8.48427 14.0123 8.56359C14.3332 8.62777 14.6214 8.69182 14.8293 8.7398C14.9334 8.76382 15.0177 8.7839 15.0764 8.79806L15.1444 8.81463L15.1627 8.81915L15.1677 8.82038L15.1691 8.82073L15.1695 8.82084L15.1697 8.82088C15.1697 8.82089 15.1698 8.8209 15 9.5L14.8303 10.1791L14.8302 10.1791L14.8294 10.1789L14.8257 10.178L14.8101 10.1741L14.7479 10.159C14.6932 10.1458 14.6135 10.1268 14.5145 10.1039C14.3161 10.0582 14.0418 9.99723 13.7377 9.93641C13.3917 9.8672 13.0277 9.80251 12.7 9.75835V11.3991ZM11.3 9.74464C11.0626 9.77762 10.8381 9.83094 10.6507 9.91126C10.4744 9.98683 10.3657 10.0717 10.3025 10.153C10.2471 10.2242 10.2 10.3255 10.2 10.5C10.2 10.5626 10.2202 10.6373 10.3462 10.7453C10.485 10.8643 10.7037 10.9763 10.977 11.07C11.0849 11.107 11.1941 11.1387 11.3 11.1658V9.74464Z" fill="#1D6CD6" fill-opacity="0.12"/>
<path fill-rule="evenodd" clip-rule="evenodd" d="M12.7 14.2554C12.9374 14.2224 13.1619 14.1691 13.3493 14.0887C13.5256 14.0132 13.6343 13.9283 13.6975 13.847C13.7529 13.7758 13.8 13.6745 13.8 13.5C13.8 13.4374 13.7798 13.3627 13.6538 13.2547C13.515 13.1357 13.2963 13.0237 13.023 12.93C12.9151 12.893 12.8059 12.8613 12.7 12.8342V14.2554ZM12.7 11.3991C12.9278 11.4446 13.2001 11.5107 13.477 11.6057C13.8287 11.7263 14.235 11.9089 14.5649 12.1917C14.9077 12.4855 15.2 12.9198 15.2 13.5C15.2 13.9683 15.0596 14.376 14.8025 14.7065C14.5532 15.0271 14.2244 15.2368 13.9007 15.3755C13.5164 15.5403 13.0922 15.6246 12.7 15.6655V17H11.3V15.6525C10.8586 15.6011 10.3843 15.5157 9.98772 15.4364C9.66682 15.3722 9.37863 15.3082 9.17073 15.2602C9.06663 15.2362 8.9823 15.2161 8.92365 15.2019L8.85556 15.1854L8.83727 15.1809L8.83231 15.1796L8.83091 15.1793L8.83048 15.1792L8.83033 15.1791C8.83027 15.1791 8.83023 15.1791 9 14.5L9.16972 13.8209L9.16983 13.8209L9.1706 13.8211L9.17427 13.822L9.18986 13.8259L9.25214 13.841C9.30676 13.8542 9.3865 13.8732 9.48553 13.8961C9.68387 13.9418 9.95819 14.0028 10.2623 14.0636C10.6083 14.1328 10.9723 14.1975 11.3 14.2416V12.6009C11.0722 12.5554 10.7999 12.4893 10.523 12.3943C10.1713 12.2737 9.76501 12.0911 9.43507 11.8083C9.09231 11.5145 8.8 11.0802 8.8 10.5C8.8 10.0317 8.94039 9.62397 9.19746 9.29346C9.44677 8.97291 9.7756 8.76317 10.0993 8.62446C10.4836 8.45972 10.9078 8.37537 11.3 8.33455V7H12.7V8.34747C13.1414 8.3989 13.6157 8.48427 14.0123 8.56359C14.3332 8.62777 14.6214 8.69182 14.8293 8.7398C14.9334 8.76382 15.0177 8.7839 15.0764 8.79806L15.1444 8.81463L15.1627 8.81915L15.1677 8.82038L15.1691 8.82073L15.1695 8.82084L15.1697 8.82088C15.1697 8.82089 15.1698 8.8209 15 9.5L14.8303 10.1791L14.8302 10.1791L14.8294 10.1789L14.8257 10.178L14.8101 10.1741L14.7479 10.159C14.6932 10.1458 14.6135 10.1268 14.5145 10.1039C14.3161 10.0582 14.0418 9.99723 13.7377 9.93641C13.3917 9.8672 13.0277 9.80251 12.7 9.75835V11.3991ZM11.3 9.74464C11.0626 9.77762 10.8381 9.83094 10.6507 9.91126C10.4744 9.98683 10.3657 10.0717 10.3025 10.153C10.2471 10.2242 10.2 10.3255 10.2 10.5C10.2 10.5626 10.2202 10.6373 10.3462 10.7453C10.485 10.8643 10.7037 10.9763 10.977 11.07C11.0849 11.107 11.1941 11.1387 11.3 11.1658V9.74464Z" fill="black" fill-opacity="0.24"/>
<path d="M5.09143 15.8233C7.23154 19.53 11.9714 20.8001 15.6781 18.66C18.4638 17.0517 19.8732 13.9752 19.4935 10.9723L22.098 13.7492" stroke="#1D6CD6" stroke-opacity="0.12" stroke-width="1.7"/>
<path d="M5.09143 15.8233C7.23154 19.53 11.9714 20.8001 15.6781 18.66C18.4638 17.0517 19.8732 13.9752 19.4935 10.9723L22.098 13.7492" stroke="black" stroke-opacity="0.24" stroke-width="1.7"/>
<path d="M18.6737 7.8182C16.5336 4.11144 11.7937 2.84141 8.08697 4.98151C5.30135 6.58979 3.89187 9.66626 4.27164 12.6691L1.66714 9.89225" stroke="#1D6CD6" stroke-opacity="0.12" stroke-width="1.7"/>
<path d="M18.6737 7.8182C16.5336 4.11144 11.7937 2.84141 8.08697 4.98151C5.30135 6.58979 3.89187 9.66626 4.27164 12.6691L1.66714 9.89225" stroke="black" stroke-opacity="0.24" stroke-width="1.7"/>
</svg>
