<svg width="24" height="24" viewBox="0 0 24 24" fill="none" xmlns="http://www.w3.org/2000/svg">
<path fill-rule="evenodd" clip-rule="evenodd" d="M15.3 10.5C15.3 13.151 13.151 15.3 10.5 15.3C7.84903 15.3 5.7 13.151 5.7 10.5C5.7 7.84903 7.84903 5.7 10.5 5.7C13.151 5.7 15.3 7.84903 15.3 10.5ZM14.3347 15.7489C13.2597 16.5356 11.9341 17 10.5 17C6.91015 17 4 14.0899 4 10.5C4 6.91015 6.91015 4 10.5 4C14.0899 4 17 6.91015 17 10.5C17 11.9341 16.5356 13.2597 15.7489 14.3347L20.7071 19.2929L19.2929 20.7071L14.3347 15.7489Z" fill="#1D6CD6" fill-opacity="0.12"/>
<path fill-rule="evenodd" clip-rule="evenodd" d="M15.3 10.5C15.3 13.151 13.151 15.3 10.5 15.3C7.84903 15.3 5.7 13.151 5.7 10.5C5.7 7.84903 7.84903 5.7 10.5 5.7C13.151 5.7 15.3 7.84903 15.3 10.5ZM14.3347 15.7489C13.2597 16.5356 11.9341 17 10.5 17C6.91015 17 4 14.0899 4 10.5C4 6.91015 6.91015 4 10.5 4C14.0899 4 17 6.91015 17 10.5C17 11.9341 16.5356 13.2597 15.7489 14.3347L20.7071 19.2929L19.2929 20.7071L14.3347 15.7489Z" fill="black" fill-opacity="0.24"/>
</svg>
