<svg width="24" height="24" viewBox="0 0 24 24" fill="none" xmlns="http://www.w3.org/2000/svg">
<path fill-rule="evenodd" clip-rule="evenodd" d="M17.4 6C17.4 6.7732 16.7732 7.4 16 7.4C15.2268 7.4 14.6 6.7732 14.6 6C14.6 5.2268 15.2268 4.6 16 4.6C16.7732 4.6 17.4 5.2268 17.4 6ZM19 6C19 7.65685 17.6569 9 16 9C15.2147 9 14.4999 8.69828 13.9652 8.20445L9.83879 11.0273C9.94329 11.3323 10 11.6595 10 12C10 12.34 9.94343 12.6668 9.83919 12.9715L13.9676 15.7933C14.5021 15.3008 15.2159 15 16 15C17.6569 15 19 16.3431 19 18C19 19.6569 17.6569 21 16 21C14.3431 21 13 19.6569 13 18C13 17.7058 13.0424 17.4215 13.1213 17.1528L8.93571 14.292C8.41324 14.7337 7.73772 15 7 15C5.34315 15 4 13.6569 4 12C4 10.3431 5.34315 9 7 9C7.73727 9 8.41243 9.26596 8.93476 9.70716L13.1203 6.84385C13.042 6.57617 13 6.29299 13 6C13 4.34315 14.3431 3 16 3C17.6569 3 19 4.34315 19 6ZM8.4 12C8.4 12.7732 7.7732 13.4 7 13.4C6.2268 13.4 5.6 12.7732 5.6 12C5.6 11.2268 6.2268 10.6 7 10.6C7.7732 10.6 8.4 11.2268 8.4 12ZM16 19.4C16.7732 19.4 17.4 18.7732 17.4 18C17.4 17.2268 16.7732 16.6 16 16.6C15.2268 16.6 14.6 17.2268 14.6 18C14.6 18.7732 15.2268 19.4 16 19.4Z" fill="#1D6CD6" fill-opacity="0.12"/>
<path fill-rule="evenodd" clip-rule="evenodd" d="M17.4 6C17.4 6.7732 16.7732 7.4 16 7.4C15.2268 7.4 14.6 6.7732 14.6 6C14.6 5.2268 15.2268 4.6 16 4.6C16.7732 4.6 17.4 5.2268 17.4 6ZM19 6C19 7.65685 17.6569 9 16 9C15.2147 9 14.4999 8.69828 13.9652 8.20445L9.83879 11.0273C9.94329 11.3323 10 11.6595 10 12C10 12.34 9.94343 12.6668 9.83919 12.9715L13.9676 15.7933C14.5021 15.3008 15.2159 15 16 15C17.6569 15 19 16.3431 19 18C19 19.6569 17.6569 21 16 21C14.3431 21 13 19.6569 13 18C13 17.7058 13.0424 17.4215 13.1213 17.1528L8.93571 14.292C8.41324 14.7337 7.73772 15 7 15C5.34315 15 4 13.6569 4 12C4 10.3431 5.34315 9 7 9C7.73727 9 8.41243 9.26596 8.93476 9.70716L13.1203 6.84385C13.042 6.57617 13 6.29299 13 6C13 4.34315 14.3431 3 16 3C17.6569 3 19 4.34315 19 6ZM8.4 12C8.4 12.7732 7.7732 13.4 7 13.4C6.2268 13.4 5.6 12.7732 5.6 12C5.6 11.2268 6.2268 10.6 7 10.6C7.7732 10.6 8.4 11.2268 8.4 12ZM16 19.4C16.7732 19.4 17.4 18.7732 17.4 18C17.4 17.2268 16.7732 16.6 16 16.6C15.2268 16.6 14.6 17.2268 14.6 18C14.6 18.7732 15.2268 19.4 16 19.4Z" fill="black" fill-opacity="0.24"/>
</svg>
