<svg width="24" height="24" viewBox="0 0 24 24" fill="none" xmlns="http://www.w3.org/2000/svg">
<path fill-rule="evenodd" clip-rule="evenodd" d="M16.6356 7.1174C15.3863 5.86991 13.664 5.09999 11.7601 5.09999C7.94938 5.09999 4.86015 8.18923 4.86015 12C4.86015 15.8108 7.94938 18.9 11.7601 18.9C15.5709 18.9 18.6601 15.8108 18.6601 12H20.3601C20.3601 16.7496 16.5098 20.6 11.7601 20.6C7.0105 20.6 3.16015 16.7496 3.16015 12C3.16015 7.25035 7.0105 3.39999 11.7601 3.39999C14.1325 3.39999 16.2818 4.36169 17.8368 5.91445L16.6356 7.1174ZM11.4912 15.6315L20.4912 8.63147L19.5088 7.3685L11.0663 13.9349L8.06569 10.9343L6.93431 12.0657L10.4343 15.5657L10.9337 16.065L11.4912 15.6315Z" fill="#1D6CD6" fill-opacity="0.12"/>
<path fill-rule="evenodd" clip-rule="evenodd" d="M16.6356 7.1174C15.3863 5.86991 13.664 5.09999 11.7601 5.09999C7.94938 5.09999 4.86015 8.18923 4.86015 12C4.86015 15.8108 7.94938 18.9 11.7601 18.9C15.5709 18.9 18.6601 15.8108 18.6601 12H20.3601C20.3601 16.7496 16.5098 20.6 11.7601 20.6C7.0105 20.6 3.16015 16.7496 3.16015 12C3.16015 7.25035 7.0105 3.39999 11.7601 3.39999C14.1325 3.39999 16.2818 4.36169 17.8368 5.91445L16.6356 7.1174ZM11.4912 15.6315L20.4912 8.63147L19.5088 7.3685L11.0663 13.9349L8.06569 10.9343L6.93431 12.0657L10.4343 15.5657L10.9337 16.065L11.4912 15.6315Z" fill="black" fill-opacity="0.24"/>
</svg>
