<svg width="24" height="24" viewBox="0 0 24 24" fill="none" xmlns="http://www.w3.org/2000/svg">
<g clip-path="url(#clip0_137_6191)">
<path d="M11.8701 3.925C11.9278 3.825 12.0722 3.825 12.1299 3.925L20.7902 18.925C20.8479 19.025 20.7757 19.15 20.6603 19.15H3.33975C3.22428 19.15 3.15211 19.025 3.20984 18.925L11.8701 3.925Z" stroke="#1D6CD6" stroke-opacity="0.12" stroke-width="1.7"/>
<path d="M11.8701 3.925C11.9278 3.825 12.0722 3.825 12.1299 3.925L20.7902 18.925C20.8479 19.025 20.7757 19.15 20.6603 19.15H3.33975C3.22428 19.15 3.15211 19.025 3.20984 18.925L11.8701 3.925Z" stroke="black" stroke-opacity="0.24" stroke-width="1.7"/>
<path d="M12 9V14M12 15V17" stroke="#1D6CD6" stroke-opacity="0.12" stroke-width="1.7"/>
<path d="M12 9V14M12 15V17" stroke="black" stroke-opacity="0.24" stroke-width="1.7"/>
</g>
<defs>
<clipPath id="clip0_137_6191">
<rect width="24" height="24" fill="white"/>
</clipPath>
</defs>
</svg>
