<svg width="24" height="24" viewBox="0 0 24 24" fill="none" xmlns="http://www.w3.org/2000/svg">
<path fill-rule="evenodd" clip-rule="evenodd" d="M13.0828 14H16.0828L16.0828 7.23607L12.0828 5.23607L8.08271 7.23607L8.08278 14H11.0828V9H13.0828V14ZM6.0827 6L6.08274 10.15H4.28282H3.53864L3.44028 10.8877L2.24028 19.8877L2.11197 20.85H3.08282H21.0828H22.0537L21.9254 19.8877L20.7254 10.8877L20.627 10.15H19.8828H18.0828L18.0828 6L12.0828 3L6.0827 6ZM5.02701 11.85H6.08276L6.0828 16L16.0828 16L18.0828 16V14L18.0828 11.85H19.1386L20.112 19.15H4.05368L5.02701 11.85Z" fill="#1D6CD6" fill-opacity="0.32"/>
<path fill-rule="evenodd" clip-rule="evenodd" d="M13.0828 14H16.0828L16.0828 7.23607L12.0828 5.23607L8.08271 7.23607L8.08278 14H11.0828V9H13.0828V14ZM6.0827 6L6.08274 10.15H4.28282H3.53864L3.44028 10.8877L2.24028 19.8877L2.11197 20.85H3.08282H21.0828H22.0537L21.9254 19.8877L20.7254 10.8877L20.627 10.15H19.8828H18.0828L18.0828 6L12.0828 3L6.0827 6ZM5.02701 11.85H6.08276L6.0828 16L16.0828 16L18.0828 16V14L18.0828 11.85H19.1386L20.112 19.15H4.05368L5.02701 11.85Z" fill="black" fill-opacity="0.32"/>
</svg>
