<svg width="24" height="24" viewBox="0 0 24 24" fill="none" xmlns="http://www.w3.org/2000/svg">
<circle cx="12" cy="12" r="8" stroke="#1D6CD6" stroke-opacity="0.32" stroke-width="2"/>
<circle cx="12" cy="12" r="8" stroke="black" stroke-opacity="0.32" stroke-width="2"/>
<path d="M8.88889 13.6667H13.7778C13.8957 13.6667 14.0087 13.6228 14.092 13.5446C14.1754 13.4665 14.2222 13.3605 14.2222 13.25C14.2222 13.1395 14.1754 13.0335 14.092 12.9554C14.0087 12.8772 13.8957 12.8333 13.7778 12.8333H10.2222C9.63285 12.8333 9.06762 12.6138 8.65087 12.2231C8.23413 11.8324 8 11.3025 8 10.75C8 10.1975 8.23413 9.66756 8.65087 9.27686C9.06762 8.88616 9.63285 8.66667 10.2222 8.66667H11.1111V7H12.8889V8.66667H15.1111V10.3333H10.2222C10.1043 10.3333 9.9913 10.3772 9.90795 10.4554C9.8246 10.5335 9.77778 10.6395 9.77778 10.75C9.77778 10.8605 9.8246 10.9665 9.90795 11.0446C9.9913 11.1228 10.1043 11.1667 10.2222 11.1667H13.7778C14.3671 11.1667 14.9324 11.3862 15.3491 11.7769C15.7659 12.1676 16 12.6975 16 13.25C16 13.8025 15.7659 14.3324 15.3491 14.7231C14.9324 15.1138 14.3671 15.3333 13.7778 15.3333H12.8889V17H11.1111V15.3333H8.88889V13.6667Z" fill="#1D6CD6" fill-opacity="0.32"/>
<path d="M8.88889 13.6667H13.7778C13.8957 13.6667 14.0087 13.6228 14.092 13.5446C14.1754 13.4665 14.2222 13.3605 14.2222 13.25C14.2222 13.1395 14.1754 13.0335 14.092 12.9554C14.0087 12.8772 13.8957 12.8333 13.7778 12.8333H10.2222C9.63285 12.8333 9.06762 12.6138 8.65087 12.2231C8.23413 11.8324 8 11.3025 8 10.75C8 10.1975 8.23413 9.66756 8.65087 9.27686C9.06762 8.88616 9.63285 8.66667 10.2222 8.66667H11.1111V7H12.8889V8.66667H15.1111V10.3333H10.2222C10.1043 10.3333 9.9913 10.3772 9.90795 10.4554C9.8246 10.5335 9.77778 10.6395 9.77778 10.75C9.77778 10.8605 9.8246 10.9665 9.90795 11.0446C9.9913 11.1228 10.1043 11.1667 10.2222 11.1667H13.7778C14.3671 11.1667 14.9324 11.3862 15.3491 11.7769C15.7659 12.1676 16 12.6975 16 13.25C16 13.8025 15.7659 14.3324 15.3491 14.7231C14.9324 15.1138 14.3671 15.3333 13.7778 15.3333H12.8889V17H11.1111V15.3333H8.88889V13.6667Z" fill="black" fill-opacity="0.32"/>
</svg>
