<svg width="24" height="24" viewBox="0 0 24 24" fill="none" xmlns="http://www.w3.org/2000/svg">
<path d="M3 5H21" stroke="#1D6CD6" stroke-opacity="0.32" stroke-width="2"/>
<path d="M3 5H21" stroke="black" stroke-opacity="0.32" stroke-width="2"/>
<path d="M3 11H21" stroke="#1D6CD6" stroke-opacity="0.32" stroke-width="2"/>
<path d="M3 11H21" stroke="black" stroke-opacity="0.32" stroke-width="2"/>
<path d="M3 17H7" stroke="#1D6CD6" stroke-opacity="0.32" stroke-width="2"/>
<path d="M3 17H7" stroke="black" stroke-opacity="0.32" stroke-width="2"/>
<path d="M14.5 14.8C16.7262 14.8 18.1699 15.5928 19.056 16.3561C19.5043 16.7423 19.8161 17.127 20.0134 17.4103C20.0352 17.4415 20.0555 17.4715 20.0744 17.5C20.0555 17.5285 20.0352 17.5585 20.0134 17.5897C19.8161 17.873 19.5043 18.2577 19.056 18.6439C18.1699 19.4072 16.7262 20.2 14.5 20.2C12.2738 20.2 10.8301 19.4072 9.94404 18.6439C9.49573 18.2577 9.18386 17.873 8.98656 17.5897C8.96482 17.5585 8.9445 17.5285 8.92558 17.5C8.9445 17.4715 8.96482 17.4415 8.98656 17.4103C9.18386 17.127 9.49573 16.7423 9.94404 16.3561C10.8301 15.5928 12.2738 14.8 14.5 14.8Z" stroke="#1D6CD6" stroke-opacity="0.32" stroke-width="1.6"/>
<path d="M14.5 14.8C16.7262 14.8 18.1699 15.5928 19.056 16.3561C19.5043 16.7423 19.8161 17.127 20.0134 17.4103C20.0352 17.4415 20.0555 17.4715 20.0744 17.5C20.0555 17.5285 20.0352 17.5585 20.0134 17.5897C19.8161 17.873 19.5043 18.2577 19.056 18.6439C18.1699 19.4072 16.7262 20.2 14.5 20.2C12.2738 20.2 10.8301 19.4072 9.94404 18.6439C9.49573 18.2577 9.18386 17.873 8.98656 17.5897C8.96482 17.5585 8.9445 17.5285 8.92558 17.5C8.9445 17.4715 8.96482 17.4415 8.98656 17.4103C9.18386 17.127 9.49573 16.7423 9.94404 16.3561C10.8301 15.5928 12.2738 14.8 14.5 14.8Z" stroke="black" stroke-opacity="0.32" stroke-width="1.6"/>
<path fill-rule="evenodd" clip-rule="evenodd" d="M14.5 19C15.3284 19 16 18.3284 16 17.5C16 17.2684 15.9475 17.0491 15.8538 16.8533C15.7633 16.9439 15.6382 17 15.5 17C15.2239 17 15 16.7761 15 16.5C15 16.3618 15.0561 16.2367 15.1467 16.1462C14.9509 16.0525 14.7316 16 14.5 16C13.6716 16 13 16.6716 13 17.5C13 18.3284 13.6716 19 14.5 19Z" fill="#1D6CD6" fill-opacity="0.32"/>
<path fill-rule="evenodd" clip-rule="evenodd" d="M14.5 19C15.3284 19 16 18.3284 16 17.5C16 17.2684 15.9475 17.0491 15.8538 16.8533C15.7633 16.9439 15.6382 17 15.5 17C15.2239 17 15 16.7761 15 16.5C15 16.3618 15.0561 16.2367 15.1467 16.1462C14.9509 16.0525 14.7316 16 14.5 16C13.6716 16 13 16.6716 13 17.5C13 18.3284 13.6716 19 14.5 19Z" fill="black" fill-opacity="0.32"/>
</svg>
